<svg xmlns="http://www.w3.org/2000/svg" xmlns:xlink="http://www.w3.org/1999/xlink" xmlns:inkscape="http://www.inkscape.org/namespaces/inkscape" version="1.1" width="666" height="203" viewBox="0 0 666 203">
<defs>
<clipPath id="clip_0">
<path d="M91.973 122.645H218.785V184.293H91.973Z"/>
</clipPath>
<clipPath id="clip_1">
<path d="M0 0H666V203H0Z"/>
</clipPath>
<clipPath id="clip_2">
<path d="M0 0H666V203H0Z"/>
</clipPath>
<clipPath id="clip_3">
<path d="M0 0H666V203H0Z"/>
</clipPath>
<clipPath id="clip_4">
<path d="M0 0H666V203H0Z"/>
</clipPath>
<clipPath id="clip_5">
<path d="M93.477 124.152H217.282V182.789H93.477Z"/>
</clipPath>
<clipPath id="clip_6">
<path d="M0 0H666V203H0Z"/>
</clipPath>
<clipPath id="clip_7">
<path d="M0 0H666V203H0Z"/>
</clipPath>
<clipPath id="clip_8">
<path d="M0 0H666V203H0Z"/>
</clipPath>
<clipPath id="clip_9">
<path d="M88.461 15.941H218.785V76.586H88.461Z"/>
</clipPath>
<clipPath id="clip_10">
<path d="M0 0H666V203H0Z"/>
</clipPath>
<clipPath id="clip_11">
<path d="M0 0H666V203H0Z"/>
</clipPath>
<clipPath id="clip_12">
<path d="M89.461 16.945H217.781V75.582H89.461Z"/>
</clipPath>
<clipPath id="clip_13">
<path d="M0 0H666V203H0Z"/>
</clipPath>
<clipPath id="clip_14">
<path d="M0 0H666V203H0Z"/>
</clipPath>
<clipPath id="clip_15">
<path d="M0 0H666V203H0Z"/>
</clipPath>
<clipPath id="clip_16">
<path d="M0 0H666V203H0Z"/>
</clipPath>
<clipPath id="clip_17">
<path d="M404 20H456V72H404Z"/>
</clipPath>
<clipPath id="clip_18">
<path d="M430.867 71.684 455.668 45.68 429.762 20.785 404.957 46.789ZM430.867 71.684"/>
</clipPath>
<clipPath id="clip_19">
<path d="M0 0H666V203H0Z"/>
</clipPath>
<clipPath id="clip_20">
<path d="M0 0H666V203H0Z"/>
</clipPath>
<clipPath id="clip_21">
<path d="M239.898 1.621H370.222V90.906009H239.898Z"/>
</clipPath>
<clipPath id="clip_22">
<path d="M0 0H666V203H0Z"/>
</clipPath>
<clipPath id="clip_23">
<path d="M0 0H666V203H0Z"/>
</clipPath>
<clipPath id="clip_24">
<path d="M240.898 2.625H369.222V89.902H240.898Z"/>
</clipPath>
<clipPath id="clip_25">
<path d="M0 0H666V203H0Z"/>
</clipPath>
<clipPath id="clip_26">
<path d="M0 0H666V203H0Z"/>
</clipPath>
<clipPath id="clip_27">
<path d="M0 0H666V203H0Z"/>
</clipPath>
<clipPath id="clip_28">
<path d="M0 0H666V203H0Z"/>
</clipPath>
<clipPath id="clip_29">
<path d="M239.398 108.324H370.722V198.617H239.398Z"/>
</clipPath>
<clipPath id="clip_30">
<path d="M0 0H666V203H0Z"/>
</clipPath>
<clipPath id="clip_31">
<path d="M0 0H666V203H0Z"/>
</clipPath>
<clipPath id="clip_32">
<path d="M0 0H666V203H0Z"/>
</clipPath>
<clipPath id="clip_33">
<path d="M0 0H666V203H0Z"/>
</clipPath>
<clipPath id="clip_34">
<path d="M240.898 109.832H369.222V197.10901H240.898Z"/>
</clipPath>
<clipPath id="clip_35">
<path d="M0 0H666V203H0Z"/>
</clipPath>
<clipPath id="clip_36">
<path d="M0 0H666V203H0Z"/>
</clipPath>
<clipPath id="clip_37">
<path d="M0 0H666V203H0Z"/>
</clipPath>
<clipPath id="clip_38">
<path d="M0 0H666V203H0Z"/>
</clipPath>
<clipPath id="clip_39">
<path d="M0 21.199H68.609V71.332H0Z"/>
</clipPath>
<clipPath id="clip_40">
<path d="M0 0H666V203H0Z"/>
</clipPath>
<clipPath id="clip_41">
<path d="M0 0H666V203H0Z"/>
</clipPath>
<clipPath id="clip_42">
<path d="M0 0H666V203H0Z"/>
</clipPath>
<clipPath id="clip_43">
<path d="M0 0H666V203H0Z"/>
</clipPath>
<clipPath id="clip_44">
<path d="M0 0H666V203H0Z"/>
</clipPath>
<clipPath id="clip_45">
<path d="M0 0H666V203H0Z"/>
</clipPath>
<clipPath id="clip_46">
<path d="M0 137.602H71.254V169.336H0Z"/>
</clipPath>
<clipPath id="clip_47">
<path d="M0 0H666V203H0Z"/>
</clipPath>
<clipPath id="clip_48">
<path d="M0 0H666V203H0Z"/>
</clipPath>
<clipPath id="clip_49">
<path d="M0 0H666V203H0Z"/>
</clipPath>
<clipPath id="clip_50">
<path d="M0 0H666V203H0Z"/>
</clipPath>
<clipPath id="clip_51">
<path d="M403.625 86.648H458.227V140.007H403.625Z"/>
</clipPath>
<clipPath id="clip_52">
<path d="M0 0H666V203H0Z"/>
</clipPath>
<clipPath id="clip_53">
<path d="M0 0H666V203H0Z"/>
</clipPath>
<clipPath id="clip_54">
<path d="M404.062 95.328H457.789V131.328H404.062Z"/>
</clipPath>
<clipPath id="clip_55">
<path d="M0 0H666V203H0Z"/>
</clipPath>
<clipPath id="clip_56">
<path d="M0 0H666V203H0Z"/>
</clipPath>
<clipPath id="clip_57">
<path d="M367.234 38.633H414.328V53.899H367.234Z"/>
</clipPath>
<clipPath id="clip_58">
<path d="M0 0H666V203H0Z"/>
</clipPath>
<clipPath id="clip_59">
<path d="M0 0H666V203H0Z"/>
</clipPath>
<clipPath id="clip_60">
<path d="M0 0H666V203H0Z"/>
</clipPath>
<clipPath id="clip_61">
<path d="M0 0H666V203H0Z"/>
</clipPath>
<clipPath id="clip_62">
<path d="M573.352 44.977H588.55899V88.160999H573.352Z"/>
</clipPath>
<clipPath id="clip_63">
<path d="M0 0H666V203H0Z"/>
</clipPath>
<clipPath id="clip_64">
<path d="M0 0H666V203H0Z"/>
</clipPath>
<clipPath id="clip_65">
<path d="M0 0H666V203H0Z"/>
</clipPath>
<clipPath id="clip_66">
<path d="M0 0H666V203H0Z"/>
</clipPath>
<clipPath id="clip_67">
<path d="M0 0H666V203H0Z"/>
</clipPath>
<clipPath id="clip_68">
<path d="M218.945 38.633H239.738V53.899H218.945Z"/>
</clipPath>
<clipPath id="clip_69">
<path d="M0 0H666V203H0Z"/>
</clipPath>
<clipPath id="clip_70">
<path d="M0 0H666V203H0Z"/>
</clipPath>
<clipPath id="clip_71">
<path d="M0 0H666V203H0Z"/>
</clipPath>
<clipPath id="clip_72">
<path d="M0 0H666V203H0Z"/>
</clipPath>
<clipPath id="clip_73">
<path d="M218.945 145.84H239.738V161.10199H218.945Z"/>
</clipPath>
<clipPath id="clip_74">
<path d="M0 0H666V203H0Z"/>
</clipPath>
<clipPath id="clip_75">
<path d="M0 0H666V203H0Z"/>
</clipPath>
<clipPath id="clip_76">
<path d="M0 0H666V203H0Z"/>
</clipPath>
<clipPath id="clip_77">
<path d="M0 0H666V203H0Z"/>
</clipPath>
<clipPath id="clip_78">
<path d="M423.32 59.242H438.527V95.246H423.32Z"/>
</clipPath>
<clipPath id="clip_79">
<path d="M0 0H666V203H0Z"/>
</clipPath>
<clipPath id="clip_80">
<path d="M0 0H666V203H0Z"/>
</clipPath>
<clipPath id="clip_81">
<path d="M0 0H666V203H0Z"/>
</clipPath>
<clipPath id="clip_82">
<path d="M0 0H666V203H0Z"/>
</clipPath>
<clipPath id="clip_83">
<path d="M0 0H666V203H0Z"/>
</clipPath>
<clipPath id="clip_84">
<path d="M368.219 172.758H583.305V177.778H368.219Z"/>
</clipPath>
<clipPath id="clip_85">
<path d="M0 0H666V203H0Z"/>
</clipPath>
<clipPath id="clip_86">
<path d="M.516 0H666V203H.516Z"/>
</clipPath>
<clipPath id="clip_87">
<path d="M0 0H666V203H0Z"/>
</clipPath>
<clipPath id="clip_88">
<path d="M0 0H666V203H0Z"/>
</clipPath>
<clipPath id="clip_89">
<path d="M573.352 115.477H588.55899V177.81299H573.352Z"/>
</clipPath>
<clipPath id="clip_90">
<path d="M0 0H666V203H0Z"/>
</clipPath>
<clipPath id="clip_91">
<path d="M0 0H666V203H0Z"/>
</clipPath>
<clipPath id="clip_92">
<path d="M0 0H666V203H0Z"/>
</clipPath>
<clipPath id="clip_93">
<path d="M0 0H666V203H0Z"/>
</clipPath>
<clipPath id="clip_94">
<path d="M0 0H666V203H0Z"/>
</clipPath>
<clipPath id="clip_95">
<path d="M368.203 154.574H432.539V159.597H368.203Z"/>
</clipPath>
<clipPath id="clip_96">
<path d="M0 0H666V203H0Z"/>
</clipPath>
<clipPath id="clip_97">
<path d="M0 0H666V203H0Z"/>
</clipPath>
<clipPath id="clip_98">
<path d="M428.426 133.691H433.426V159.597H428.426Z"/>
</clipPath>
<clipPath id="clip_99">
<path d="M0 0H666V203H0Z"/>
</clipPath>
<clipPath id="clip_100">
<path d="M0 0H666V203H0Z"/>
</clipPath>
<clipPath id="clip_101">
<path d="M0 0H666V203H0Z"/>
</clipPath>
<clipPath id="clip_102">
<path d="M446.281 43.754H584.148V48.777H446.281Z"/>
</clipPath>
<clipPath id="clip_103">
<path d="M0 0H666V203H0Z"/>
</clipPath>
<clipPath id="clip_104">
<path d="M0 0H666V203H0Z"/>
</clipPath>
<clipPath id="clip_105">
<path d="M71.07 145.84H91.859V161.10199H71.07Z"/>
</clipPath>
<clipPath id="clip_106">
<path d="M0 0H666V203H0Z"/>
</clipPath>
<clipPath id="clip_107">
<path d="M0 0H666V203H0Z"/>
</clipPath>
<clipPath id="clip_108">
<path d="M0 0H666V203H0Z"/>
</clipPath>
<clipPath id="clip_109">
<path d="M0 0H666V203H0Z"/>
</clipPath>
<clipPath id="clip_110">
<path d="M66.406 38.633H87.199V53.899H66.406Z"/>
</clipPath>
<clipPath id="clip_111">
<path d="M0 0H666V203H0Z"/>
</clipPath>
<clipPath id="clip_112">
<path d="M0 0H666V203H0Z"/>
</clipPath>
<clipPath id="clip_113">
<path d="M0 0H666V203H0Z"/>
</clipPath>
<clipPath id="clip_114">
<path d="M0 0H666V203H0Z"/>
</clipPath>
</defs>
<g>
<g clip-path="url(#clip_0)">
<g clip-path="url(#clip_1)">
<g clip-path="url(#clip_2)">
<path d="M121.059 124.152H189.699C197.793 124.152 202.648 124.152 205.887 125.508 210.555 127.215 214.23 130.906 215.93 135.59 217.281 138.84 217.281 143.715 217.281 151.84V155.102C217.281 163.227 217.281 168.102 215.93 171.352 214.23 176.035 210.555 179.727 205.887 181.43 202.648 182.789 197.793 182.789 189.699 182.789H121.059C112.965 182.789 108.105 182.789 104.871 181.43 100.203 179.727 96.523 176.035 94.828 171.352 93.477 168.102 93.477 163.227 93.477 155.102V151.84C93.477 143.715 93.477 138.84 94.828 135.59 96.523 130.906 100.203 127.215 104.871 125.508 108.105 124.152 112.965 124.152 121.059 124.152ZM121.059 124.152" fill="#bfbfbf"/>
</g>
</g>
<g clip-path="url(#clip_3)">
<g clip-path="url(#clip_4)">
<path transform="matrix(.996215,0,0,1,0,0)" stroke-width="1.10469" stroke-linecap="butt" stroke-miterlimit="4" stroke-linejoin="miter" fill="none" stroke="#000000" d="M121.519 124.152H190.42C198.544 124.152 203.418 124.152 206.669 125.508 211.355 127.215 215.044 130.906 216.75 135.59 218.107 138.84 218.107 143.715 218.107 151.84V155.102C218.107 163.227 218.107 168.102 216.75 171.352 215.044 176.035 211.355 179.727 206.669 181.43 203.418 182.789 198.544 182.789 190.42 182.789H121.519C113.394 182.789 108.516 182.789 105.27 181.43 100.584 179.727 96.894 176.035 95.188 171.352 93.832 168.102 93.832 163.227 93.832 155.102V151.84C93.832 143.715 93.832 138.84 95.188 135.59 96.894 130.906 100.584 127.215 105.27 125.508 108.516 124.152 113.394 124.152 121.519 124.152ZM121.519 124.152"/>
</g>
</g>
</g>
<g clip-path="url(#clip_5)">
<g clip-path="url(#clip_6)">
<g clip-path="url(#clip_7)">
<path d="M143.539 149.883V140.254H140.066V138.547H149.035V140.254H145.566V149.883ZM152.793 150.059C151.938 150.059 151.207 149.879 150.598 149.516 149.996 149.16 149.527 148.645 149.191 147.977 148.863 147.312 148.699 146.523 148.699 145.609V145.598C148.699 144.699 148.863 143.914 149.191 143.246 149.52 142.578 149.98 142.062 150.574 141.691 151.176 141.312 151.883 141.125 152.699 141.125 153.508 141.125 154.211 141.309 154.797 141.668 155.383 142.031 155.832 142.531 156.156 143.176 156.477 143.816 156.637 144.57 156.637 145.434V146.082H149.684V144.762H155.676L154.75 146V145.223C154.75 144.652 154.66 144.176 154.492 143.797 154.32 143.422 154.082 143.137 153.777 142.949 153.473 142.762 153.121 142.668 152.723 142.668 152.312 142.668 151.953 142.77 151.641 142.961 151.336 143.16 151.094 143.445 150.914 143.82 150.734 144.199 150.645 144.664 150.645 145.223V146C150.645 146.535 150.73 146.988 150.902 147.363 151.082 147.734 151.336 148.02 151.664 148.223 151.992 148.43 152.383 148.527 152.828 148.527 153.18 148.527 153.477 148.48 153.73 148.375 153.988 148.266 154.191 148.141 154.352 148 154.508 147.859 154.613 147.723 154.68 147.586L154.703 147.527H156.543L156.531 147.598C156.461 147.883 156.336 148.168 156.156 148.457 155.973 148.742 155.734 149.004 155.43 149.246 155.125 149.492 154.754 149.688 154.316 149.836 153.875 149.98 153.367 150.059 152.793 150.059ZM157.285 149.883 160.051 145.621 157.262 141.289H159.512L161.211 144.27H161.34L163.043 141.289H165.176L162.406 145.539 165.211 149.883H163.02L161.258 146.895H161.129L159.371 149.883ZM169.957 149.918C168.977 149.918 168.27 149.738 167.832 149.375 167.402 149.016 167.188 148.422 167.188 147.598V142.809H165.863V141.289H167.188V139.195H169.172V141.289H170.977V142.809H169.172V147.141C169.172 147.562 169.258 147.875 169.441 148.07 169.617 148.266 169.91 148.363 170.32 148.363 170.461 148.363 170.57 148.359 170.66 148.352 170.754 148.348 170.859 148.336 170.977 148.328V149.836C170.836 149.859 170.676 149.879 170.508 149.895 170.332 149.91 170.148 149.918 169.957 149.918ZM169.957 149.918"/>
</g>
</g>
<g clip-path="url(#clip_8)">
<path d="M125.391 167.957V156.625H132.695V158.332H127.41V161.402H132.414V163.004H127.41V166.254H132.695V167.957ZM134.68 167.957V159.367H136.637V160.699H136.766C136.969 160.227 137.277 159.863 137.695 159.602 138.105 159.34 138.621 159.203 139.23 159.203 140.184 159.203 140.91 159.48 141.422 160.039 141.93 160.598 142.184 161.387 142.184 162.402V167.957H140.238V162.863C140.238 162.188 140.098 161.688 139.816 161.355 139.535 161.02 139.102 160.852 138.516 160.852 138.121 160.852 137.789 160.938 137.504 161.109 137.223 161.281 137.008 161.527 136.859 161.84 136.711 162.152 136.637 162.527 136.637 162.957V167.957ZM147.848 168.137C146.98 168.137 146.242 167.957 145.629 167.605 145.02 167.246 144.551 166.73 144.223 166.062 143.902 165.391 143.742 164.586 143.742 163.652V163.641C143.742 162.715 143.902 161.922 144.223 161.262 144.551 160.602 145.02 160.098 145.629 159.746 146.242 159.387 146.973 159.203 147.836 159.203 148.566 159.203 149.199 159.332 149.723 159.59 150.254 159.844 150.676 160.191 150.988 160.641 151.301 161.086 151.492 161.609 151.562 162.203V162.238H149.723V162.215C149.629 161.801 149.422 161.461 149.113 161.191 148.801 160.926 148.379 160.793 147.848 160.793 147.402 160.793 147.016 160.906 146.699 161.133 146.383 161.355 146.141 161.676 145.973 162.098 145.805 162.523 145.723 163.035 145.723 163.641V163.652C145.723 164.262 145.809 164.789 145.984 165.215 146.152 165.648 146.395 165.98 146.711 166.207 147.02 166.434 147.402 166.547 147.848 166.547 148.344 166.547 148.754 166.434 149.066 166.207 149.375 165.969 149.594 165.629 149.711 165.18L149.723 165.145 151.562 165.133 151.551 165.203C151.457 165.789 151.254 166.301 150.941 166.746 150.629 167.188 150.215 167.531 149.699 167.77 149.184 168.012 148.566 168.137 147.848 168.137ZM156.809 168.137C155.953 168.137 155.219 167.957 154.602 167.594 153.984 167.234 153.508 166.723 153.172 166.062 152.844 165.398 152.68 164.602 152.68 163.676V163.652C152.68 162.734 152.848 161.941 153.184 161.273 153.52 160.609 153.992 160.098 154.602 159.746 155.219 159.387 155.953 159.203 156.809 159.203 157.652 159.203 158.379 159.387 158.988 159.746 159.602 160.098 160.082 160.609 160.418 161.273 160.754 161.941 160.922 162.734 160.922 163.652V163.676C160.922 164.602 160.754 165.398 160.418 166.062 160.09 166.723 159.613 167.234 159 167.594 158.391 167.957 157.656 168.137 156.809 168.137ZM156.809 166.547C157.254 166.547 157.629 166.434 157.945 166.207 158.262 165.98 158.508 165.652 158.672 165.227 158.836 164.801 158.918 164.281 158.918 163.676V163.664C158.918 163.051 158.836 162.535 158.672 162.109 158.508 161.688 158.262 161.363 157.945 161.133 157.629 160.906 157.254 160.793 156.809 160.793 156.352 160.793 155.965 160.906 155.645 161.133 155.332 161.363 155.09 161.688 154.918 162.109 154.754 162.535 154.672 163.051 154.672 163.664V163.676C154.672 164.281 154.754 164.801 154.918 165.227 155.09 165.652 155.332 165.98 155.645 166.207 155.957 166.434 156.344 166.547 156.809 166.547ZM165.637 168.102C164.934 168.102 164.316 167.922 163.785 167.57 163.262 167.211 162.855 166.695 162.566 166.027 162.277 165.363 162.133 164.578 162.133 163.676V163.664C162.133 162.754 162.273 161.969 162.555 161.309 162.844 160.645 163.25 160.129 163.773 159.77 164.297 159.41 164.918 159.227 165.637 159.227 166.035 159.227 166.402 159.293 166.738 159.414 167.074 159.543 167.375 159.719 167.633 159.945 167.891 160.164 168.09 160.434 168.242 160.746H168.383V156.051H170.328V167.957H168.383V166.617H168.242C168.082 166.922 167.879 167.191 167.621 167.418 167.367 167.637 167.074 167.805 166.738 167.922 166.41 168.039 166.043 168.102 165.637 168.102ZM166.258 166.453C166.695 166.453 167.074 166.344 167.398 166.121 167.715 165.895 167.961 165.574 168.137 165.156 168.312 164.742 168.406 164.25 168.406 163.676V163.664C168.406 163.082 168.312 162.59 168.137 162.18 167.961 161.766 167.715 161.449 167.398 161.227 167.074 161 166.695 160.887 166.258 160.887 165.812 160.887 165.43 160.996 165.109 161.215 164.789 161.438 164.543 161.754 164.371 162.168 164.199 162.586 164.113 163.082 164.113 163.664V163.676C164.113 164.258 164.199 164.754 164.371 165.168 164.543 165.578 164.789 165.895 165.109 166.121 165.43 166.344 165.812 166.453 166.258 166.453ZM176.125 168.137C175.273 168.137 174.543 167.957 173.934 167.594 173.328 167.234 172.859 166.719 172.527 166.051 172.199 165.387 172.035 164.598 172.035 163.688V163.676C172.035 162.773 172.199 161.988 172.527 161.32 172.855 160.656 173.316 160.137 173.91 159.77 174.512 159.391 175.215 159.203 176.031 159.203 176.844 159.203 177.543 159.387 178.129 159.746 178.715 160.105 179.168 160.609 179.492 161.25 179.809 161.895 179.973 162.648 179.973 163.512V164.156H173.02V162.84H179.008L178.082 164.074V163.297C178.082 162.727 177.996 162.25 177.824 161.875 177.652 161.496 177.414 161.215 177.109 161.027 176.805 160.84 176.453 160.746 176.055 160.746 175.648 160.746 175.289 160.844 174.977 161.039 174.672 161.234 174.43 161.52 174.25 161.898 174.066 162.273 173.98 162.742 173.98 163.297V164.074C173.98 164.609 174.066 165.062 174.238 165.441 174.418 165.812 174.672 166.098 175 166.301 175.328 166.504 175.715 166.605 176.16 166.605 176.512 166.605 176.812 166.555 177.062 166.453 177.32 166.344 177.527 166.219 177.684 166.074 177.84 165.934 177.949 165.801 178.012 165.664L178.035 165.605H179.879L179.867 165.676C179.797 165.957 179.668 166.246 179.492 166.535 179.309 166.816 179.066 167.082 178.762 167.324 178.457 167.566 178.086 167.766 177.648 167.91 177.211 168.059 176.703 168.137 176.125 168.137ZM181.602 167.957V159.367H183.559V160.699H183.688C183.836 160.234 184.098 159.875 184.473 159.613 184.848 159.355 185.32 159.227 185.891 159.227 186.031 159.227 186.172 159.238 186.312 159.262 186.461 159.281 186.582 159.297 186.676 159.32V161.074C186.52 161.043 186.359 161.02 186.195 161.004 186.039 160.98 185.875 160.969 185.703 160.969 185.273 160.969 184.895 161.051 184.566 161.215 184.246 161.375 183.996 161.605 183.816 161.91 183.645 162.211 183.559 162.562 183.559 162.969V167.957ZM181.602 167.957"/>
</g>
</g>
<g clip-path="url(#clip_9)">
<g clip-path="url(#clip_10)">
<g clip-path="url(#clip_11)">
<path d="M117.043 16.945H190.199C198.293 16.945 203.148 16.945 206.387 18.305 211.055 20.008 214.73 23.699 216.43 28.387 217.781 31.637 217.781 36.512 217.781 44.637V47.895C217.781 56.02 217.781 60.895 216.43 64.145 214.73 68.828 211.055 72.52 206.387 74.227 203.148 75.582 198.293 75.582 190.199 75.582H117.043C108.949 75.582 104.094 75.582 100.855 74.227 96.188 72.52 92.512 68.828 90.812 64.145 89.461 60.895 89.461 56.02 89.461 47.895V44.637C89.461 36.512 89.461 31.637 90.812 28.387 92.512 23.699 96.188 20.008 100.855 18.305 104.094 16.945 108.949 16.945 117.043 16.945ZM117.043 16.945" fill="#5ac4f6"/>
</g>
</g>
</g>
<g clip-path="url(#clip_12)">
<g clip-path="url(#clip_13)">
<g clip-path="url(#clip_14)">
<path d="M143.887 42.562V30.84H145.973V42.562ZM149.527 38.691V36.996H152.633C153.383 36.996 153.965 36.805 154.379 36.418 154.793 36.035 155 35.488 155 34.785V34.773C155 34.059 154.793 33.508 154.379 33.125 153.965 32.742 153.383 32.547 152.633 32.547H149.527V30.84H153.137C153.934 30.84 154.625 31.004 155.211 31.336 155.805 31.66 156.27 32.113 156.609 32.699 156.941 33.289 157.113 33.977 157.113 34.762V34.773C157.113 35.559 156.941 36.242 156.609 36.832 156.27 37.414 155.805 37.867 155.211 38.195 154.625 38.527 153.934 38.691 153.137 38.691ZM148.484 42.562V30.84H150.57V42.562ZM158.863 38.75V36.914H164.27V38.75ZM158.863 38.75"/>
</g>
</g>
<g clip-path="url(#clip_15)">
<g clip-path="url(#clip_16)">
<path d="M122.996 61.645 127.137 49.922H128.871V52.098H128.25L125.18 61.645ZM125.086 58.617 125.625 56.992H130.98L131.52 58.617ZM131.449 61.645 128.379 52.098V49.922H129.48L133.633 61.645ZM137.766 61.785C137.031 61.785 136.391 61.602 135.844 61.23 135.305 60.863 134.887 60.336 134.59 59.652 134.289 58.965 134.145 58.152 134.145 57.219V57.207C134.145 56.266 134.289 55.453 134.578 54.77 134.875 54.082 135.293 53.551 135.832 53.18 136.371 52.805 137.016 52.617 137.766 52.617 138.164 52.617 138.539 52.684 138.891 52.816 139.242 52.941 139.551 53.121 139.82 53.359 140.082 53.586 140.293 53.859 140.453 54.18H140.594V49.332H142.598V61.645H140.594V60.254H140.453C140.289 60.578 140.07 60.852 139.809 61.078 139.547 61.309 139.246 61.484 138.902 61.609 138.559 61.723 138.18 61.785 137.766 61.785ZM138.398 60.09C138.852 60.09 139.242 59.977 139.57 59.746 139.906 59.512 140.164 59.18 140.348 58.746 140.523 58.316 140.617 57.805 140.617 57.219V57.207C140.617 56.613 140.523 56.102 140.348 55.676 140.164 55.246 139.906 54.91 139.57 54.676 139.242 54.441 138.852 54.324 138.398 54.324 137.945 54.324 137.551 54.441 137.215 54.676 136.887 54.906 136.633 55.234 136.453 55.664 136.273 56.098 136.184 56.613 136.184 57.207V57.219C136.184 57.816 136.273 58.328 136.453 58.758 136.633 59.184 136.887 59.512 137.215 59.746 137.543 59.977 137.938 60.09 138.398 60.09ZM147.172 61.785C146.617 61.785 146.121 61.676 145.684 61.465 145.242 61.25 144.902 60.941 144.652 60.547 144.398 60.148 144.277 59.676 144.277 59.137V59.113C144.277 58.594 144.406 58.145 144.664 57.758 144.922 57.375 145.301 57.078 145.801 56.863 146.301 56.648 146.91 56.516 147.629 56.477L150.902 56.277V57.605L147.91 57.805C147.348 57.84 146.93 57.957 146.656 58.16 146.391 58.363 146.258 58.652 146.258 59.02V59.043C146.258 59.418 146.402 59.711 146.691 59.926 146.98 60.137 147.348 60.242 147.793 60.242 148.199 60.242 148.559 60.16 148.871 59.996 149.191 59.832 149.441 59.613 149.621 59.336 149.809 59.055 149.902 58.734 149.902 58.383V55.582C149.902 55.133 149.762 54.793 149.48 54.559 149.199 54.324 148.785 54.203 148.238 54.203 147.777 54.203 147.402 54.289 147.113 54.453 146.824 54.609 146.629 54.836 146.527 55.121L146.516 55.156H144.617V55.086C144.688 54.586 144.879 54.152 145.203 53.781 145.531 53.406 145.961 53.117 146.492 52.91 147.023 52.699 147.637 52.594 148.332 52.594 149.098 52.594 149.742 52.711 150.27 52.945 150.797 53.18 151.199 53.523 151.477 53.969 151.758 54.418 151.898 54.957 151.898 55.582V61.645H149.902V60.43H149.762C149.605 60.707 149.398 60.949 149.141 61.16 148.883 61.367 148.59 61.523 148.262 61.633 147.934 61.73 147.57 61.785 147.172 61.785ZM153.934 64.586V52.77H155.949V54.156H156.078C156.242 53.836 156.457 53.562 156.715 53.336 156.977 53.109 157.281 52.93 157.629 52.805 157.969 52.68 158.348 52.617 158.766 52.617 159.508 52.617 160.148 52.805 160.688 53.18 161.234 53.559 161.656 54.086 161.953 54.77 162.25 55.453 162.398 56.266 162.398 57.207V57.219C162.398 58.16 162.25 58.973 161.953 59.652 161.656 60.336 161.238 60.863 160.699 61.23 160.16 61.602 159.516 61.785 158.766 61.785 158.367 61.785 157.992 61.719 157.641 61.594 157.289 61.473 156.977 61.297 156.715 61.066 156.445 60.832 156.234 60.555 156.078 60.23H155.949V64.586ZM158.145 60.09C158.594 60.09 158.988 59.977 159.316 59.746 159.645 59.512 159.895 59.18 160.078 58.746 160.258 58.316 160.348 57.805 160.348 57.219V57.207C160.348 56.602 160.258 56.086 160.078 55.664 159.895 55.234 159.645 54.906 159.316 54.676 158.988 54.441 158.594 54.324 158.145 54.324 157.68 54.324 157.281 54.441 156.949 54.676 156.621 54.906 156.363 55.234 156.184 55.664 156.004 56.086 155.914 56.602 155.914 57.195V57.207C155.914 57.805 156.004 58.316 156.184 58.746 156.363 59.18 156.621 59.512 156.961 59.746 157.293 59.977 157.688 60.09 158.145 60.09ZM167.543 61.68C166.527 61.68 165.789 61.496 165.34 61.125 164.895 60.75 164.672 60.137 164.672 59.289V54.336H163.301V52.77H164.672V50.594H166.723V52.77H168.586V54.336H166.723V58.805C166.723 59.246 166.809 59.57 166.992 59.773 167.18 59.977 167.484 60.078 167.906 60.078 168.047 60.078 168.164 60.074 168.258 60.066 168.352 60.059 168.461 60.047 168.586 60.031V61.594C168.445 61.621 168.281 61.641 168.094 61.656 167.914 61.668 167.73 61.68 167.543 61.68ZM173.93 61.82C173.043 61.82 172.293 61.637 171.668 61.266 171.039 60.891 170.555 60.359 170.215 59.676 169.875 58.988 169.711 58.172 169.711 57.23V57.219C169.711 56.285 169.875 55.473 170.215 54.781 170.547 54.094 171.023 53.555 171.645 53.168 172.27 52.785 172.996 52.594 173.824 52.594 174.668 52.594 175.391 52.781 175.992 53.156 176.602 53.527 177.07 54.047 177.402 54.711 177.734 55.379 177.906 56.156 177.906 57.043V57.711H170.719V56.359H176.906L175.957 57.617V56.816C175.957 56.23 175.867 55.742 175.688 55.359 175.508 54.969 175.262 54.672 174.949 54.477 174.637 54.281 174.273 54.18 173.859 54.18 173.438 54.18 173.066 54.285 172.746 54.488 172.422 54.691 172.172 54.992 171.984 55.383 171.801 55.777 171.715 56.254 171.715 56.816V57.629C171.715 58.18 171.801 58.652 171.984 59.043 172.172 59.426 172.434 59.723 172.77 59.938 173.102 60.141 173.504 60.242 173.965 60.242 174.324 60.242 174.633 60.191 174.891 60.09 175.156 59.98 175.371 59.852 175.535 59.699 175.699 59.555 175.812 59.414 175.875 59.277L175.898 59.219H177.812L177.801 59.289C177.73 59.57 177.602 59.863 177.414 60.16 177.223 60.461 176.969 60.734 176.648 60.984 176.336 61.238 175.953 61.441 175.5 61.594 175.047 61.742 174.523 61.82 173.93 61.82ZM179.539 61.645V52.77H181.559V54.133H181.688C181.84 53.656 182.113 53.285 182.508 53.016 182.895 52.75 183.379 52.617 183.961 52.617 184.117 52.617 184.27 52.629 184.418 52.652 184.562 52.668 184.688 52.691 184.781 52.723V54.535C184.617 54.496 184.453 54.469 184.289 54.453 184.125 54.43 183.953 54.418 183.773 54.418 183.328 54.418 182.934 54.504 182.602 54.676 182.273 54.84 182.016 55.082 181.828 55.395 181.645 55.699 181.559 56.062 181.559 56.488V61.645ZM179.539 61.645"/>
</g>
</g>
</g>
<g clip-path="url(#clip_17)">
<g clip-path="url(#clip_18)">
<g clip-path="url(#clip_19)">
<g clip-path="url(#clip_20)">
<path d="M418.082 34.484C411.613 41.266 411.852 52.023 418.605 58.512 425.359 65.004 436.074 64.77 442.543 57.988 449.008 51.207 448.777 40.449 442.023 33.957 435.27 27.469 424.547 27.703 418.082 34.484ZM420.973 40.02 423.719 37.141C423.754 37.102 423.82 37.102 423.859 37.137L430.176 43.207C430.215 43.246 430.277 43.246 430.316 43.207L436.363 36.867C436.402 36.828 436.465 36.824 436.504 36.863L439.375 39.617C439.414 39.656 439.414 39.719 439.375 39.758L433.328 46.098C433.289 46.137 433.293 46.203 433.332 46.242L439.648 52.309C439.688 52.348 439.688 52.414 439.652 52.453L436.906 55.332C436.867 55.371 436.805 55.371 436.766 55.332L430.449 49.262C430.41 49.223 430.348 49.227 430.309 49.266L424.262 55.609C424.223 55.648 424.16 55.648 424.121 55.609L421.254 52.855C421.215 52.816 421.211 52.754 421.25 52.715L427.297 46.371C427.336 46.332 427.332 46.27 427.293 46.234L420.977 40.164C420.938 40.125 420.934 40.059 420.973 40.02ZM420.973 40.02"/>
</g>
</g>
</g>
</g>
<g clip-path="url(#clip_21)">
<g clip-path="url(#clip_22)">
<g clip-path="url(#clip_23)">
<path d="M270.324 2.625H339.797C348.434 2.625 353.613 2.625 357.066 4.074 362.047 5.895 365.969 9.828 367.781 14.828 369.223 18.293 369.223 23.496 369.223 32.164V60.367C369.223 69.035 369.223 74.234 367.781 77.703 365.969 82.699 362.047 86.637 357.066 88.457 353.613 89.902 348.434 89.902 339.797 89.902H270.324C261.691 89.902 256.508 89.902 253.055 88.457 248.078 86.637 244.156 82.699 242.344 77.703 240.898 74.234 240.898 69.035 240.898 60.367V32.164C240.898 23.496 240.898 18.293 242.344 14.828 244.156 9.828 248.078 5.895 253.055 4.074 256.508 2.625 261.691 2.625 270.324 2.625ZM270.324 2.625" fill="#5ac4f6"/>
</g>
</g>
</g>
<g clip-path="url(#clip_24)">
<g clip-path="url(#clip_25)">
<g clip-path="url(#clip_26)">
<path d="M298.457 32.047V19.312H300.719V32.047ZM304.508 27.836V26H307.875C308.684 26 309.32 25.793 309.773 25.375 310.223 24.949 310.453 24.355 310.453 23.586V23.574C310.453 22.805 310.223 22.215 309.773 21.797 309.32 21.371 308.684 21.16 307.875 21.16H304.508V19.312H308.426C309.285 19.312 310.035 19.488 310.688 19.844 311.336 20.195 311.84 20.691 312.199 21.324 312.566 21.961 312.75 22.707 312.75 23.562V23.586C312.75 24.434 312.566 25.176 312.199 25.809 311.84 26.445 311.336 26.945 310.688 27.305 310.035 27.656 309.285 27.836 308.426 27.836ZM303.371 32.047V19.312H305.633V32.047ZM303.371 32.047"/>
</g>
</g>
<g clip-path="url(#clip_27)">
<path d="M287.586 53.336C286.625 53.336 285.797 53.137 285.109 52.738 284.43 52.332 283.906 51.754 283.539 51.008 283.172 50.254 282.988 49.352 282.988 48.301V48.277C282.988 47.242 283.168 46.355 283.527 45.617 283.895 44.871 284.422 44.305 285.109 43.91 285.797 43.512 286.625 43.309 287.586 43.309 288.406 43.309 289.113 43.457 289.707 43.746 290.297 44.035 290.77 44.438 291.113 44.945 291.465 45.449 291.684 46.027 291.77 46.688V46.723H289.695V46.699C289.594 46.23 289.359 45.848 289.004 45.547 288.652 45.25 288.176 45.098 287.586 45.098 287.094 45.098 286.664 45.227 286.309 45.477 285.953 45.719 285.684 46.082 285.496 46.559 285.309 47.039 285.215 47.613 285.215 48.289V48.312C285.215 48.988 285.309 49.566 285.496 50.055 285.691 50.543 285.965 50.914 286.32 51.172 286.672 51.426 287.094 51.547 287.586 51.547 288.152 51.547 288.609 51.418 288.957 51.16 289.309 50.902 289.547 50.52 289.684 50.008L289.695 49.973H291.758L291.746 50.043C291.645 50.695 291.418 51.266 291.066 51.762 290.723 52.254 290.258 52.641 289.672 52.926 289.09 53.199 288.398 53.336 287.586 53.336ZM293.387 53.137V43.512H295.566V44.992H295.707C295.871 44.469 296.164 44.062 296.586 43.781 297.016 43.492 297.543 43.344 298.168 43.344 298.332 43.344 298.492 43.355 298.648 43.379 298.805 43.398 298.938 43.414 299.047 43.438V45.418C298.875 45.371 298.699 45.34 298.52 45.324 298.34 45.301 298.156 45.285 297.969 45.285 297.484 45.285 297.062 45.383 296.703 45.57 296.344 45.754 296.062 46.012 295.859 46.348 295.664 46.676 295.566 47.074 295.566 47.535V53.137ZM304.25 53.336C303.297 53.336 302.473 53.137 301.777 52.738 301.09 52.332 300.559 51.754 300.184 51.008 299.812 50.254 299.633 49.359 299.633 48.324V48.312C299.633 47.277 299.82 46.387 300.195 45.641 300.57 44.895 301.102 44.32 301.789 43.922 302.473 43.516 303.297 43.309 304.25 43.309 305.203 43.309 306.023 43.512 306.711 43.91 307.398 44.309 307.934 44.887 308.309 45.641 308.684 46.387 308.871 47.277 308.871 48.312V48.324C308.871 49.359 308.684 50.254 308.309 51.008 307.938 51.754 307.41 52.332 306.723 52.738 306.035 53.137 305.211 53.336 304.25 53.336ZM304.25 51.547C304.758 51.547 305.188 51.426 305.539 51.172 305.891 50.914 306.16 50.543 306.348 50.066 306.535 49.578 306.629 49 306.629 48.324V48.312C306.629 47.629 306.535 47.051 306.348 46.57 306.16 46.094 305.887 45.727 305.527 45.477 305.176 45.227 304.75 45.098 304.25 45.098 303.742 45.098 303.312 45.227 302.961 45.477 302.609 45.727 302.34 46.094 302.152 46.57 301.965 47.051 301.871 47.629 301.871 48.312V48.324C301.871 49.008 301.965 49.59 302.152 50.066 302.34 50.543 302.609 50.914 302.961 51.172 303.312 51.426 303.742 51.547 304.25 51.547ZM314.227 53.336C313.41 53.336 312.707 53.215 312.113 52.984 311.527 52.742 311.062 52.418 310.719 52.008 310.383 51.594 310.188 51.113 310.133 50.57L310.121 50.535H312.289L312.301 50.559C312.41 50.898 312.629 51.172 312.957 51.383 313.285 51.594 313.723 51.699 314.262 51.699 314.625 51.699 314.945 51.652 315.223 51.547 315.496 51.449 315.707 51.309 315.867 51.125 316.023 50.945 316.102 50.734 316.102 50.488V50.477C316.102 50.195 315.988 49.961 315.762 49.77 315.531 49.578 315.156 49.418 314.637 49.301L313.062 48.945C312.461 48.816 311.961 48.629 311.562 48.395 311.164 48.152 310.867 47.852 310.672 47.5 310.477 47.148 310.379 46.734 310.379 46.266V46.254C310.379 45.672 310.539 45.164 310.859 44.723 311.188 44.273 311.641 43.93 312.219 43.688 312.805 43.438 313.477 43.309 314.227 43.309 315 43.309 315.668 43.434 316.23 43.676 316.793 43.91 317.23 44.238 317.543 44.652 317.863 45.059 318.047 45.527 318.094 46.051V46.074H316.031V46.051C315.953 45.738 315.754 45.477 315.445 45.262 315.141 45.047 314.73 44.934 314.215 44.934 313.891 44.934 313.605 44.988 313.344 45.086 313.094 45.18 312.895 45.32 312.746 45.5 312.605 45.68 312.535 45.887 312.535 46.121V46.133C312.535 46.324 312.582 46.488 312.676 46.629 312.777 46.77 312.934 46.895 313.145 47.004 313.359 47.109 313.633 47.203 313.98 47.289L315.527 47.629C316.16 47.77 316.68 47.957 317.086 48.195 317.5 48.422 317.805 48.707 318 49.043 318.203 49.379 318.305 49.781 318.305 50.254V50.266C318.305 50.879 318.129 51.414 317.777 51.879 317.426 52.344 316.938 52.703 316.324 52.961 315.715 53.211 315.012 53.336 314.227 53.336ZM323.492 53.336C322.68 53.336 321.977 53.215 321.383 52.984 320.797 52.742 320.332 52.418 319.988 52.008 319.652 51.594 319.453 51.113 319.402 50.57L319.391 50.535H321.559L321.57 50.559C321.68 50.898 321.898 51.172 322.227 51.383 322.555 51.594 322.988 51.699 323.527 51.699 323.895 51.699 324.215 51.652 324.488 51.547 324.762 51.449 324.977 51.309 325.133 51.125 325.289 50.945 325.367 50.734 325.367 50.488V50.477C325.367 50.195 325.254 49.961 325.027 49.77 324.801 49.578 324.426 49.418 323.902 49.301L322.332 48.945C321.73 48.816 321.23 48.629 320.832 48.395 320.434 48.152 320.133 47.852 319.941 47.5 319.746 47.148 319.648 46.734 319.648 46.266V46.254C319.648 45.672 319.805 45.164 320.129 44.723 320.457 44.273 320.906 43.93 321.488 43.688 322.074 43.438 322.742 43.309 323.492 43.309 324.266 43.309 324.934 43.434 325.496 43.676 326.062 43.91 326.496 44.238 326.812 44.652 327.129 45.059 327.316 45.527 327.363 46.051V46.074H325.297V46.051C325.219 45.738 325.023 45.477 324.711 45.262 324.406 45.047 323.996 44.934 323.48 44.934 323.16 44.934 322.871 44.988 322.613 45.086 322.363 45.18 322.164 45.32 322.016 45.5 321.875 45.68 321.805 45.887 321.805 46.121V46.133C321.805 46.324 321.852 46.488 321.945 46.629 322.047 46.77 322.203 46.895 322.414 47.004 322.625 47.109 322.902 47.203 323.246 47.289L324.793 47.629C325.426 47.77 325.945 47.957 326.355 48.195 326.766 48.422 327.07 48.707 327.27 49.043 327.469 49.379 327.574 49.781 327.574 50.254V50.266C327.574 50.879 327.398 51.414 327.047 51.879 326.695 52.344 326.207 52.703 325.59 52.961 324.98 53.211 324.281 53.336 323.492 53.336ZM323.492 53.336"/>
</g>
<g clip-path="url(#clip_28)">
<path d="M266.812 74.227 271.312 61.492H273.191V63.859H272.523L269.18 74.227ZM269.074 70.93 269.672 69.176H275.488L276.086 70.93ZM276.004 74.227 272.664 63.859V61.492H273.871L278.371 74.227ZM283.094 74.285C281.992 74.285 281.199 74.082 280.715 73.672 280.227 73.266 279.988 72.598 279.988 71.66V66.293H278.5V64.602H279.988V62.223H282.215V64.602H284.219V66.293H282.215V71.168C282.215 71.637 282.312 71.984 282.508 72.203 282.711 72.422 283.039 72.531 283.492 72.531 283.648 72.531 283.777 72.527 283.879 72.52 283.98 72.516 284.094 72.504 284.219 72.484V74.18C284.07 74.203 283.898 74.227 283.703 74.25 283.508 74.273 283.305 74.285 283.094 74.285ZM289.766 74.285C288.664 74.285 287.867 74.082 287.387 73.672 286.898 73.266 286.66 72.598 286.66 71.66V66.293H285.168V64.602H286.66V62.223H288.887V64.602H290.891V66.293H288.887V71.168C288.887 71.637 288.984 71.984 289.18 72.203 289.383 72.422 289.711 72.531 290.164 72.531 290.32 72.531 290.449 72.527 290.551 72.52 290.652 72.516 290.766 72.504 290.891 72.484V74.18C290.742 74.203 290.57 74.227 290.375 74.25 290.18 74.273 289.977 74.285 289.766 74.285ZM296.629 74.426C295.676 74.426 294.859 74.223 294.18 73.816 293.5 73.41 292.973 72.832 292.598 72.086 292.227 71.34 292.047 70.457 292.047 69.438V69.426C292.047 68.414 292.227 67.535 292.598 66.789 292.965 66.035 293.48 65.453 294.156 65.035 294.828 64.613 295.621 64.398 296.535 64.398 297.441 64.398 298.223 64.605 298.883 65.012 299.543 65.41 300.055 65.973 300.406 66.695 300.762 67.418 300.945 68.266 300.945 69.238V69.965H293.148V68.484H299.879L298.836 69.859V68.988C298.836 68.348 298.734 67.812 298.539 67.391 298.352 66.965 298.086 66.648 297.742 66.438 297.398 66.223 297.004 66.117 296.559 66.117 296.105 66.117 295.703 66.234 295.352 66.461 295.008 66.68 294.734 67 294.531 67.426 294.324 67.848 294.227 68.371 294.227 68.988V69.871C294.227 70.461 294.324 70.965 294.52 71.391 294.723 71.812 295.008 72.141 295.375 72.367 295.742 72.586 296.176 72.695 296.676 72.695 297.074 72.695 297.414 72.645 297.695 72.531 297.977 72.414 298.203 72.277 298.375 72.121 298.555 71.957 298.68 71.797 298.754 71.637L298.777 71.578H300.852L300.828 71.66C300.758 71.977 300.617 72.293 300.418 72.613 300.211 72.938 299.938 73.234 299.598 73.508 299.25 73.785 298.836 74.008 298.34 74.18 297.848 74.344 297.277 74.426 296.629 74.426ZM302.672 74.227V64.602H304.855V66.07H304.996C305.23 65.555 305.574 65.148 306.039 64.848 306.5 64.551 307.078 64.398 307.773 64.398 308.852 64.398 309.672 64.715 310.234 65.34 310.797 65.961 311.078 66.844 311.078 67.988V74.227H308.898V68.496C308.898 67.75 308.738 67.195 308.418 66.824 308.105 66.449 307.621 66.258 306.965 66.258 306.523 66.258 306.148 66.359 305.84 66.555 305.527 66.742 305.281 67.012 305.113 67.367 304.938 67.711 304.855 68.129 304.855 68.613V74.227ZM316.961 74.285C315.859 74.285 315.062 74.082 314.578 73.672 314.094 73.266 313.852 72.598 313.852 71.66V66.293H312.363V64.602H313.852V62.223H316.082V64.602H318.086V66.293H316.082V71.168C316.082 71.637 316.176 71.984 316.375 72.203 316.574 72.422 316.902 72.531 317.359 72.531 317.512 72.531 317.645 72.527 317.746 72.52 317.844 72.516 317.961 72.504 318.086 72.484V74.18C317.938 74.203 317.762 74.227 317.57 74.25 317.371 74.273 317.172 74.285 316.961 74.285ZM319.84 74.227V64.602H322.02V74.227ZM320.941 62.988C320.578 62.988 320.273 62.863 320.016 62.609 319.762 62.359 319.641 62.059 319.641 61.703 319.641 61.344 319.762 61.039 320.016 60.785 320.273 60.527 320.578 60.398 320.941 60.398 321.293 60.398 321.59 60.527 321.844 60.785 322.102 61.039 322.23 61.344 322.23 61.703 322.23 62.059 322.102 62.359 321.844 62.609 321.59 62.863 321.293 62.988 320.941 62.988ZM328.387 74.426C327.434 74.426 326.609 74.227 325.914 73.828 325.227 73.422 324.695 72.844 324.32 72.098 323.949 71.344 323.77 70.449 323.77 69.414V69.402C323.77 68.367 323.957 67.477 324.332 66.73 324.707 65.984 325.238 65.41 325.926 65.012 326.613 64.605 327.434 64.398 328.387 64.398 329.34 64.398 330.16 64.602 330.852 65 331.535 65.398 332.07 65.977 332.445 66.73 332.82 67.477 333.008 68.367 333.008 69.402V69.414C333.008 70.449 332.82 71.344 332.445 72.098 332.074 72.844 331.547 73.422 330.863 73.828 330.172 74.227 329.348 74.426 328.387 74.426ZM328.387 72.637C328.895 72.637 329.324 72.516 329.676 72.262 330.027 72.004 330.301 71.633 330.488 71.156 330.676 70.668 330.77 70.09 330.77 69.414V69.402C330.77 68.719 330.676 68.141 330.488 67.66 330.301 67.184 330.023 66.816 329.664 66.566 329.312 66.316 328.887 66.188 328.387 66.188 327.879 66.188 327.449 66.316 327.098 66.566 326.746 66.816 326.477 67.184 326.289 67.66 326.102 68.141 326.008 68.719 326.008 69.402V69.414C326.008 70.094 326.102 70.68 326.289 71.156 326.477 71.633 326.746 72.004 327.098 72.262 327.449 72.516 327.879 72.637 328.387 72.637ZM334.738 74.227V64.602H336.922V66.07H337.062C337.297 65.555 337.641 65.148 338.105 64.848 338.566 64.551 339.141 64.398 339.84 64.398 340.918 64.398 341.738 64.715 342.301 65.34 342.863 65.961 343.145 66.844 343.145 67.988V74.227H340.965V68.496C340.965 67.75 340.805 67.195 340.484 66.824 340.172 66.449 339.688 66.258 339.031 66.258 338.59 66.258 338.215 66.359 337.906 66.555 337.59 66.742 337.348 67.012 337.18 67.367 337.004 67.711 336.922 68.129 336.922 68.613V74.227ZM334.738 74.227"/>
</g>
</g>
<g clip-path="url(#clip_29)">
<g clip-path="url(#clip_30)">
<g clip-path="url(#clip_31)">
<path d="M270.324 109.832H339.797C348.434 109.832 353.613 109.832 357.066 111.277 362.047 113.098 365.969 117.035 367.781 122.031 369.223 125.5 369.223 130.699 369.223 139.367V167.574C369.223 176.242 369.223 181.441 367.781 184.906 365.969 189.906 362.047 193.844 357.066 195.66 353.613 197.109 348.434 197.109 339.797 197.109H270.324C261.691 197.109 256.508 197.109 253.055 195.66 248.078 193.844 244.156 189.906 242.344 184.906 240.898 181.441 240.898 176.242 240.898 167.574V139.367C240.898 130.699 240.898 125.5 242.344 122.031 244.156 117.035 248.078 113.098 253.055 111.277 256.508 109.832 261.691 109.832 270.324 109.832ZM270.324 109.832" fill="#bfbfbf"/>
</g>
</g>
<g clip-path="url(#clip_32)">
<g clip-path="url(#clip_33)">
<path transform="matrix(.996215,0,0,1,0,0)" stroke-width="1.10469" stroke-linecap="butt" stroke-miterlimit="4" stroke-linejoin="miter" fill="none" stroke="#000000" d="M271.351 109.832H341.088C349.757 109.832 354.957 109.832 358.423 111.281 363.422 113.098 367.359 117.035 369.179 122.035 370.625 125.5 370.625 130.699 370.625 139.367V167.574C370.625 176.242 370.625 181.441 369.179 184.906 367.359 189.906 363.422 193.844 358.423 195.66 354.957 197.109 349.757 197.109 341.088 197.109H271.351C262.686 197.109 257.482 197.109 254.016 195.66 249.021 193.844 245.084 189.906 243.265 184.906 241.814 181.441 241.814 176.242 241.814 167.574V139.367C241.814 130.699 241.814 125.5 243.265 122.035 245.084 117.035 249.021 113.098 254.016 111.281 257.482 109.832 262.686 109.832 271.351 109.832ZM271.351 109.832"/>
</g>
</g>
</g>
<g clip-path="url(#clip_34)">
<g clip-path="url(#clip_35)">
<g clip-path="url(#clip_36)">
<path d="M292.012 139.191V128.363H288.109V126.457H298.18V128.363H294.277V139.191ZM302.246 139.391C301.289 139.391 300.477 139.188 299.797 138.777 299.117 138.371 298.586 137.797 298.211 137.047 297.844 136.305 297.66 135.422 297.66 134.398V134.387C297.66 133.375 297.844 132.5 298.211 131.754 298.578 131 299.098 130.418 299.773 130 300.441 129.574 301.238 129.363 302.152 129.363 303.059 129.363 303.84 129.57 304.496 129.977 305.16 130.375 305.668 130.938 306.02 131.656 306.379 132.383 306.559 133.23 306.559 134.199V134.93H298.766V133.445H305.492L304.449 134.824V133.953C304.449 133.312 304.352 132.777 304.156 132.352 303.969 131.93 303.703 131.609 303.359 131.398 303.016 131.188 302.621 131.082 302.176 131.082 301.723 131.082 301.32 131.195 300.969 131.422 300.621 131.645 300.348 131.965 300.148 132.387 299.941 132.812 299.844 133.336 299.844 133.953V134.836C299.844 135.426 299.938 135.93 300.137 136.355 300.336 136.777 300.621 137.105 300.992 137.332 301.359 137.551 301.793 137.66 302.293 137.66 302.691 137.66 303.031 137.605 303.312 137.496 303.594 137.379 303.82 137.242 303.992 137.082 304.172 136.918 304.297 136.762 304.367 136.602L304.391 136.543H306.465L306.441 136.625C306.371 136.938 306.234 137.258 306.031 137.578 305.828 137.902 305.555 138.199 305.211 138.473 304.867 138.75 304.449 138.973 303.957 139.145 303.465 139.309 302.895 139.391 302.246 139.391ZM307.176 139.191 310.293 134.398 307.164 129.562H309.672L311.586 132.895H311.738L313.637 129.562H316.039L312.934 134.316 316.062 139.191H313.613L311.645 135.836H311.504L309.531 139.191ZM321.27 139.25C320.168 139.25 319.375 139.047 318.891 138.637 318.406 138.23 318.164 137.559 318.164 136.625V131.258H316.676V129.562H318.164V127.188H320.391V129.562H322.398V131.258H320.391V136.129C320.391 136.602 320.488 136.949 320.684 137.164 320.887 137.387 321.215 137.496 321.668 137.496 321.824 137.496 321.953 137.492 322.059 137.484 322.156 137.477 322.27 137.465 322.398 137.449V139.145C322.246 139.168 322.074 139.191 321.883 139.215 321.684 139.238 321.48 139.25 321.27 139.25ZM321.27 139.25"/>
</g>
</g>
<g clip-path="url(#clip_37)">
<path d="M287.59 160.586C286.395 160.586 285.355 160.316 284.484 159.785 283.605 159.242 282.93 158.477 282.457 157.48 281.988 156.484 281.75 155.297 281.75 153.926V153.902C281.75 152.531 281.988 151.344 282.457 150.348 282.93 149.352 283.605 148.582 284.473 148.039 285.344 147.5 286.387 147.227 287.59 147.227 288.551 147.227 289.418 147.418 290.191 147.793 290.969 148.168 291.594 148.695 292.082 149.371 292.566 150.039 292.859 150.805 292.961 151.664V151.746H290.734L290.723 151.688C290.617 151.188 290.418 150.754 290.121 150.383 289.832 150.004 289.469 149.719 289.031 149.512 288.602 149.309 288.121 149.207 287.59 149.207 286.863 149.207 286.238 149.395 285.715 149.77 285.191 150.148 284.781 150.688 284.496 151.395 284.215 152.102 284.074 152.938 284.074 153.902V153.914C284.074 154.879 284.215 155.715 284.496 156.418 284.781 157.121 285.191 157.66 285.715 158.043 286.238 158.43 286.863 158.621 287.59 158.621 288.129 158.621 288.613 158.531 289.043 158.352 289.48 158.16 289.84 157.898 290.121 157.551 290.41 157.195 290.609 156.785 290.723 156.312L290.746 156.266H292.973L292.961 156.336C292.848 157.184 292.555 157.926 292.07 158.562 291.59 159.195 290.969 159.695 290.203 160.055 289.438 160.406 288.566 160.586 287.59 160.586ZM294.785 160.281V150.652H296.969V152.137H297.109C297.273 151.613 297.566 151.207 297.988 150.922 298.414 150.637 298.941 150.488 299.57 150.488 299.734 150.488 299.891 150.5 300.051 150.523 300.207 150.543 300.336 150.559 300.449 150.582V152.559C300.277 152.512 300.102 152.484 299.922 152.465 299.738 152.441 299.559 152.43 299.371 152.43 298.883 152.43 298.461 152.523 298.105 152.711 297.742 152.895 297.461 153.152 297.262 153.488 297.062 153.82 296.969 154.215 296.969 154.68V160.281ZM305.664 160.48C304.707 160.48 303.883 160.281 303.191 159.879 302.5 159.473 301.969 158.898 301.594 158.148 301.227 157.395 301.043 156.504 301.043 155.465V155.453C301.043 154.418 301.23 153.531 301.605 152.781 301.98 152.039 302.512 151.465 303.203 151.066 303.887 150.66 304.707 150.453 305.664 150.453 306.617 150.453 307.438 150.652 308.125 151.055 308.812 151.453 309.344 152.031 309.719 152.781 310.094 153.531 310.281 154.418 310.281 155.453V155.465C310.281 156.504 310.094 157.395 309.719 158.148 309.352 158.898 308.824 159.473 308.137 159.879 307.449 160.281 306.625 160.48 305.664 160.48ZM305.664 158.691C306.172 158.691 306.602 158.566 306.953 158.312 307.305 158.055 307.574 157.688 307.762 157.207 307.949 156.723 308.043 156.145 308.043 155.465V155.453C308.043 154.773 307.949 154.191 307.762 153.711 307.574 153.234 307.301 152.871 306.941 152.617 306.59 152.367 306.16 152.242 305.664 152.242 305.152 152.242 304.727 152.367 304.375 152.617 304.023 152.871 303.754 153.234 303.566 153.711 303.379 154.191 303.285 154.773 303.285 155.453V155.465C303.285 156.148 303.379 156.73 303.566 157.207 303.754 157.688 304.023 158.055 304.375 158.312 304.727 158.566 305.152 158.691 305.664 158.691ZM315.633 160.48C314.816 160.48 314.113 160.359 313.523 160.125 312.934 159.887 312.469 159.559 312.125 159.148 311.789 158.734 311.594 158.254 311.539 157.715L311.527 157.68H313.699L313.711 157.703C313.816 158.039 314.039 158.312 314.367 158.527 314.695 158.738 315.129 158.844 315.668 158.844 316.035 158.844 316.352 158.793 316.629 158.691 316.902 158.59 317.113 158.449 317.273 158.266 317.43 158.086 317.508 157.875 317.508 157.633V157.621C317.508 157.336 317.395 157.102 317.168 156.914 316.938 156.719 316.562 156.562 316.043 156.441L314.473 156.09C313.867 155.957 313.371 155.773 312.969 155.535 312.57 155.297 312.273 154.996 312.078 154.641 311.883 154.289 311.785 153.879 311.785 153.406V153.395C311.785 152.816 311.945 152.305 312.266 151.863 312.594 151.418 313.047 151.074 313.629 150.828 314.215 150.578 314.883 150.453 315.633 150.453 316.406 150.453 317.074 150.578 317.637 150.816 318.199 151.055 318.637 151.379 318.949 151.793 319.27 152.203 319.453 152.672 319.5 153.195V153.219H317.438V153.195C317.359 152.883 317.16 152.617 316.852 152.406 316.547 152.188 316.137 152.078 315.621 152.078 315.297 152.078 315.012 152.129 314.754 152.23 314.5 152.324 314.301 152.461 314.156 152.641 314.016 152.824 313.945 153.031 313.945 153.266V153.277C313.945 153.465 313.992 153.629 314.086 153.773 314.184 153.914 314.344 154.039 314.555 154.148 314.766 154.25 315.039 154.344 315.387 154.43L316.934 154.773C317.566 154.914 318.086 155.102 318.492 155.336 318.906 155.566 319.211 155.848 319.406 156.184 319.609 156.523 319.711 156.926 319.711 157.395V157.406C319.711 158.02 319.535 158.559 319.184 159.02 318.832 159.484 318.348 159.844 317.73 160.102 317.121 160.352 316.422 160.48 315.633 160.48ZM324.891 160.48C324.078 160.48 323.371 160.359 322.781 160.125 322.195 159.887 321.727 159.559 321.387 159.148 321.047 158.734 320.852 158.254 320.801 157.715L320.789 157.68H322.957L322.969 157.703C323.078 158.039 323.297 158.312 323.625 158.527 323.953 158.738 324.387 158.844 324.926 158.844 325.293 158.844 325.613 158.793 325.887 158.691 326.16 158.59 326.375 158.449 326.531 158.266 326.688 158.086 326.766 157.875 326.766 157.633V157.621C326.766 157.336 326.652 157.102 326.426 156.914 326.199 156.719 325.824 156.562 325.301 156.441L323.73 156.09C323.125 155.957 322.629 155.773 322.23 155.535 321.832 155.297 321.531 154.996 321.34 154.641 321.141 154.289 321.047 153.879 321.047 153.406V153.395C321.047 152.816 321.203 152.305 321.527 151.863 321.855 151.418 322.305 151.074 322.887 150.828 323.473 150.578 324.141 150.453 324.891 150.453 325.664 150.453 326.332 150.578 326.895 150.816 327.457 151.055 327.895 151.379 328.211 151.793 328.527 152.203 328.715 152.672 328.762 153.195V153.219H326.695V153.195C326.617 152.883 326.422 152.617 326.109 152.406 325.805 152.188 325.395 152.078 324.879 152.078 324.559 152.078 324.27 152.129 324.012 152.23 323.758 152.324 323.559 152.461 323.414 152.641 323.273 152.824 323.203 153.031 323.203 153.266V153.277C323.203 153.465 323.25 153.629 323.344 153.773 323.441 153.914 323.602 154.039 323.812 154.148 324.023 154.25 324.301 154.344 324.645 154.43L326.191 154.773C326.824 154.914 327.344 155.102 327.75 155.336 328.164 155.566 328.469 155.848 328.668 156.184 328.867 156.523 328.973 156.926 328.973 157.395V157.406C328.973 158.02 328.797 158.559 328.445 159.02 328.094 159.484 327.605 159.844 326.988 160.102 326.379 160.352 325.68 160.48 324.891 160.48ZM324.891 160.48"/>
</g>
<g clip-path="url(#clip_38)">
<path d="M266.812 181.371 271.312 168.637H273.191V171H272.523L269.18 181.371ZM269.074 178.074 269.672 176.32H275.488L276.086 178.074ZM276.004 181.371 272.664 171V168.637H273.871L278.371 181.371ZM283.094 181.43C281.992 181.43 281.199 181.227 280.715 180.816 280.227 180.41 279.988 179.738 279.988 178.805V173.438H278.5V171.742H279.988V169.363H282.215V171.742H284.219V173.438H282.215V178.309C282.215 178.781 282.312 179.129 282.508 179.344 282.711 179.566 283.039 179.676 283.492 179.676 283.648 179.676 283.777 179.672 283.879 179.664 283.98 179.656 284.094 179.645 284.219 179.629V181.324C284.07 181.348 283.898 181.371 283.703 181.395 283.508 181.418 283.305 181.43 283.094 181.43ZM289.766 181.43C288.664 181.43 287.867 181.227 287.387 180.816 286.898 180.41 286.66 179.738 286.66 178.805V173.438H285.168V171.742H286.66V169.363H288.887V171.742H290.891V173.438H288.887V178.309C288.887 178.781 288.984 179.129 289.18 179.344 289.383 179.566 289.711 179.676 290.164 179.676 290.32 179.676 290.449 179.672 290.551 179.664 290.652 179.656 290.766 179.645 290.891 179.629V181.324C290.742 181.348 290.57 181.371 290.375 181.395 290.18 181.418 289.977 181.43 289.766 181.43ZM296.629 181.57C295.676 181.57 294.859 181.367 294.18 180.957 293.5 180.551 292.973 179.977 292.598 179.227 292.227 178.484 292.047 177.602 292.047 176.578V176.566C292.047 175.555 292.227 174.68 292.598 173.93 292.965 173.18 293.48 172.598 294.156 172.18 294.828 171.754 295.621 171.543 296.535 171.543 297.441 171.543 298.223 171.75 298.883 172.156 299.543 172.555 300.055 173.117 300.406 173.836 300.762 174.562 300.945 175.41 300.945 176.379V177.109H293.148V175.625H299.879L298.836 177.004V176.133C298.836 175.492 298.734 174.957 298.539 174.531 298.352 174.109 298.086 173.789 297.742 173.578 297.398 173.367 297.004 173.262 296.559 173.262 296.105 173.262 295.703 173.375 295.352 173.602 295.008 173.824 294.734 174.145 294.531 174.566 294.324 174.992 294.227 175.516 294.227 176.133V177.016C294.227 177.602 294.324 178.109 294.52 178.531 294.723 178.957 295.008 179.285 295.375 179.512 295.742 179.73 296.176 179.84 296.676 179.84 297.074 179.84 297.414 179.785 297.695 179.676 297.977 179.559 298.203 179.422 298.375 179.262 298.555 179.098 298.68 178.938 298.754 178.781L298.777 178.723H300.852L300.828 178.805C300.758 179.117 300.617 179.438 300.418 179.758 300.211 180.082 299.938 180.379 299.598 180.652 299.25 180.93 298.836 181.152 298.34 181.324 297.848 181.488 297.277 181.57 296.629 181.57ZM302.672 181.371V171.742H304.855V173.215H304.996C305.23 172.695 305.574 172.289 306.039 171.988 306.5 171.691 307.078 171.543 307.773 171.543 308.852 171.543 309.672 171.855 310.234 172.484 310.797 173.105 311.078 173.988 311.078 175.133V181.371H308.898V175.637C308.898 174.895 308.738 174.336 308.418 173.969 308.105 173.59 307.621 173.402 306.965 173.402 306.523 173.402 306.148 173.5 305.84 173.695 305.527 173.883 305.281 174.156 305.113 174.508 304.938 174.855 304.855 175.27 304.855 175.754V181.371ZM316.961 181.43C315.859 181.43 315.062 181.227 314.578 180.816 314.094 180.41 313.852 179.738 313.852 178.805V173.438H312.363V171.742H313.852V169.363H316.082V171.742H318.086V173.438H316.082V178.309C316.082 178.781 316.176 179.129 316.375 179.344 316.574 179.566 316.902 179.676 317.359 179.676 317.512 179.676 317.645 179.672 317.746 179.664 317.844 179.656 317.961 179.645 318.086 179.629V181.324C317.938 181.348 317.762 181.371 317.57 181.395 317.371 181.418 317.172 181.43 316.961 181.43ZM319.84 181.371V171.742H322.02V181.371ZM320.941 170.129C320.578 170.129 320.273 170.008 320.016 169.754 319.762 169.504 319.641 169.199 319.641 168.848 319.641 168.488 319.762 168.184 320.016 167.93 320.273 167.672 320.578 167.543 320.941 167.543 321.293 167.543 321.59 167.672 321.844 167.93 322.102 168.184 322.23 168.488 322.23 168.848 322.23 169.199 322.102 169.504 321.844 169.754 321.59 170.008 321.293 170.129 320.941 170.129ZM328.387 181.57C327.434 181.57 326.609 181.371 325.914 180.969 325.227 180.562 324.695 179.988 324.32 179.238 323.949 178.484 323.77 177.59 323.77 176.555V176.543C323.77 175.508 323.957 174.621 324.332 173.871 324.707 173.129 325.238 172.555 325.926 172.156 326.613 171.75 327.434 171.543 328.387 171.543 329.34 171.543 330.16 171.742 330.852 172.145 331.535 172.543 332.07 173.121 332.445 173.871 332.82 174.621 333.008 175.508 333.008 176.543V176.555C333.008 177.59 332.82 178.484 332.445 179.238 332.074 179.988 331.547 180.562 330.863 180.969 330.172 181.371 329.348 181.57 328.387 181.57ZM328.387 179.781C328.895 179.781 329.324 179.656 329.676 179.402 330.027 179.145 330.301 178.777 330.488 178.297 330.676 177.812 330.77 177.234 330.77 176.555V176.543C330.77 175.863 330.676 175.281 330.488 174.801 330.301 174.324 330.023 173.961 329.664 173.707 329.312 173.457 328.887 173.332 328.387 173.332 327.879 173.332 327.449 173.457 327.098 173.707 326.746 173.961 326.477 174.324 326.289 174.801 326.102 175.281 326.008 175.863 326.008 176.543V176.555C326.008 177.238 326.102 177.82 326.289 178.297 326.477 178.777 326.746 179.145 327.098 179.402 327.449 179.656 327.879 179.781 328.387 179.781ZM334.738 181.371V171.742H336.922V173.215H337.062C337.297 172.695 337.641 172.289 338.105 171.988 338.566 171.691 339.141 171.543 339.84 171.543 340.918 171.543 341.738 171.855 342.301 172.484 342.863 173.105 343.145 173.988 343.145 175.133V181.371H340.965V175.637C340.965 174.895 340.805 174.336 340.484 173.969 340.172 173.59 339.688 173.402 339.031 173.402 338.59 173.402 338.215 173.5 337.906 173.695 337.59 173.883 337.348 174.156 337.18 174.508 337.004 174.855 336.922 175.27 336.922 175.754V181.371ZM334.738 181.371"/>
</g>
</g>
<g clip-path="url(#clip_39)">
<g clip-path="url(#clip_40)">
<g clip-path="url(#clip_41)">
<text fill="#ea4d3d" xml:space="preserve" transform="matrix(.9981056 0 0 1.001898 0 0)" font-size="24.056775" font-family="Arial"><tspan y="55.26897" x="2.7286726">R</tspan></text>
</g>
</g>
<g clip-path="url(#clip_42)">
<g clip-path="url(#clip_43)">
<text fill="#64c466" xml:space="preserve" transform="matrix(.9981056 0 0 1.001898 0 0)" font-size="24.056775" font-family="Arial"><tspan y="55.26897" x="21.006194">G</tspan></text>
</g>
</g>
<g clip-path="url(#clip_44)">
<g clip-path="url(#clip_45)">
<text fill="#295ff4" xml:space="preserve" transform="matrix(.9981056 0 0 1.001898 0 0)" font-size="24.056775" font-family="Arial"><tspan y="55.26897" x="41.045675">B</tspan></text>
</g>
</g>
</g>
<g clip-path="url(#clip_46)">
<g clip-path="url(#clip_47)">
<g clip-path="url(#clip_48)">
<path d="M4.461 156.191V154.105H7.711C8.465 154.105 9.059 153.914 9.48 153.52 9.902 153.129 10.113 152.57 10.113 151.848V151.824C10.113 151.102 9.902 150.551 9.48 150.164 9.059 149.773 8.465 149.574 7.711 149.574H4.461V147.469H8.355C9.246 147.469 10.023 147.652 10.688 148.012 11.359 148.371 11.879 148.879 12.246 149.527 12.621 150.184 12.809 150.941 12.809 151.812V151.836C12.809 152.715 12.621 153.48 12.246 154.129 11.879 154.785 11.359 155.289 10.688 155.648 10.023 156.012 9.246 156.191 8.355 156.191ZM3.125 160.203V147.469H5.789V160.203ZM14.523 160.203V150.492H17.094V152.023H17.246C17.391 151.484 17.68 151.066 18.102 150.777 18.523 150.488 19.043 150.34 19.672 150.34 19.84 150.34 20.012 150.352 20.176 150.375 20.344 150.395 20.496 150.422 20.621 150.469V152.707C20.434 152.66 20.238 152.625 20.047 152.602 19.852 152.578 19.652 152.566 19.449 152.566 18.973 152.566 18.551 152.656 18.195 152.836 17.844 153.008 17.566 153.258 17.375 153.59 17.188 153.918 17.094 154.316 17.094 154.777V160.203ZM14.523 160.203"/>
</g>
</g>
<g clip-path="url(#clip_49)">
<g clip-path="url(#clip_50)">
<path d="M25.922 160.402C24.938 160.402 24.082 160.203 23.363 159.805 22.652 159.398 22.105 158.816 21.723 158.062 21.348 157.309 21.16 156.406 21.16 155.355V155.344C21.16 154.293 21.352 153.391 21.734 152.637 22.125 151.883 22.676 151.305 23.387 150.906 24.098 150.5 24.941 150.293 25.922 150.293 26.906 150.293 27.754 150.5 28.465 150.906 29.176 151.305 29.723 151.883 30.105 152.637 30.496 153.391 30.691 154.293 30.691 155.344V155.355C30.691 156.406 30.5 157.309 30.117 158.062 29.742 158.816 29.199 159.398 28.488 159.805 27.777 160.203 26.922 160.402 25.922 160.402ZM25.922 158.379C26.379 158.379 26.77 158.262 27.082 158.027 27.402 157.789 27.645 157.445 27.809 156.992 27.977 156.539 28.066 155.988 28.066 155.355V155.344C28.066 154.707 27.977 154.164 27.809 153.719 27.645 153.266 27.402 152.914 27.082 152.672 26.758 152.43 26.371 152.305 25.922 152.305 25.477 152.305 25.09 152.43 24.773 152.672 24.449 152.914 24.203 153.266 24.031 153.719 23.867 154.164 23.785 154.707 23.785 155.344V155.355C23.785 155.988 23.867 156.539 24.031 156.992 24.203 157.445 24.445 157.789 24.762 158.027 25.078 158.262 25.465 158.379 25.922 158.379ZM32.301 160.203V150.492H34.867V152.023H35.02C35.223 151.477 35.562 151.055 36.031 150.754 36.504 150.445 37.062 150.293 37.707 150.293 38.145 150.293 38.539 150.363 38.891 150.504 39.25 150.648 39.555 150.852 39.805 151.117 40.062 151.387 40.254 151.711 40.379 152.094H40.531C40.688 151.727 40.906 151.41 41.188 151.141 41.469 150.875 41.805 150.668 42.195 150.516 42.586 150.371 43.004 150.293 43.453 150.293 44.098 150.293 44.66 150.43 45.129 150.695 45.598 150.953 45.953 151.328 46.207 151.812 46.465 152.301 46.594 152.879 46.594 153.543V160.203H44.027V154.188C44.027 153.797 43.969 153.473 43.852 153.211 43.734 152.949 43.551 152.75 43.309 152.625 43.074 152.492 42.777 152.426 42.418 152.426 42.074 152.426 41.773 152.504 41.516 152.66 41.266 152.816 41.07 153.031 40.93 153.309 40.789 153.582 40.719 153.895 40.719 154.25V160.203H38.164V154.07C38.164 153.719 38.098 153.422 37.965 153.176 37.84 152.938 37.66 152.75 37.426 152.625 37.191 152.492 36.902 152.426 36.57 152.426 36.23 152.426 35.938 152.508 35.68 152.672 35.426 152.836 35.227 153.066 35.082 153.355 34.938 153.645 34.867 153.977 34.867 154.355V160.203ZM48.594 163.418V150.492H51.16V152.012H51.312C51.48 151.66 51.703 151.363 51.98 151.117 52.262 150.867 52.59 150.676 52.965 150.543 53.34 150.41 53.754 150.34 54.207 150.34 55.012 150.34 55.707 150.547 56.297 150.953 56.883 151.352 57.332 151.926 57.656 152.672 57.973 153.418 58.137 154.309 58.137 155.344V155.355C58.137 156.398 57.977 157.293 57.668 158.039 57.352 158.785 56.906 159.363 56.32 159.77 55.73 160.168 55.027 160.367 54.207 160.367 53.762 160.367 53.352 160.293 52.977 160.156 52.602 160.016 52.27 159.82 51.98 159.566 51.699 159.309 51.477 159.004 51.312 158.648H51.16V163.418ZM53.328 158.227C53.781 158.227 54.172 158.113 54.5 157.887 54.828 157.648 55.078 157.316 55.25 156.883 55.43 156.453 55.52 155.941 55.52 155.355V155.344C55.52 154.75 55.43 154.238 55.25 153.812 55.078 153.383 54.828 153.055 54.5 152.824 54.172 152.598 53.781 152.484 53.328 152.484 52.883 152.484 52.496 152.598 52.168 152.824 51.84 153.055 51.586 153.379 51.406 153.801 51.223 154.227 51.137 154.738 51.137 155.344V155.355C51.137 155.941 51.223 156.453 51.406 156.883 51.586 157.316 51.84 157.648 52.168 157.887 52.496 158.113 52.883 158.227 53.328 158.227ZM63.75 160.25C62.582 160.25 61.742 160.043 61.227 159.625 60.711 159.211 60.453 158.527 60.453 157.578V152.438H58.965V150.492H60.453V148.176H63.047V150.492H65.039V152.438H63.047V157.004C63.047 157.445 63.141 157.766 63.34 157.969 63.539 158.164 63.855 158.262 64.289 158.262 64.453 158.262 64.586 158.258 64.688 158.25 64.797 158.242 64.914 158.234 65.039 158.227V160.133C64.879 160.164 64.691 160.195 64.465 160.215 64.242 160.238 64.008 160.25 63.75 160.25ZM63.75 160.25"/>
</g>
</g>
</g>
<g clip-path="url(#clip_51)">
<g clip-path="url(#clip_52)">
<g clip-path="url(#clip_53)">
<path d="M404.625 87.652H457.223V139H404.625Z"/>
</g>
</g>
</g>
<g clip-path="url(#clip_54)">
<g clip-path="url(#clip_55)">
<g clip-path="url(#clip_56)">
<path d="M447.352 96.332C446.969 96.328 446.535 96.34 446.035 96.367 444.352 96.457 441.754 99.891 440.574 103.176 440.496 103.383 440.328 103.539 440.121 103.59 428.367 107.188 422.594 112.039 420.754 113.766 418.902 115.508 408.215 118.949 405.793 119.895 403.734 120.703 406.531 120.883 407.98 120.469 409.105 120.145 411.383 119.535 412.328 119.285 412.367 119.273 412.395 119.34 412.355 119.352 411.543 119.703 409.637 120.543 408.305 121.145 406.57 121.922 409.391 122.012 410.945 121.414 412.461 120.828 414.492 120.102 417.094 119.387 417.211 119.363 417.336 119.379 417.441 119.43 418.633 120.105 421.066 120.117 423.059 118.766 423.113 118.727 423.191 118.738 423.23 118.793 424.344 120.129 427.605 120.48 430.738 120.469 430.84 120.469 430.902 120.586 430.836 120.676 430.773 120.766 430.695 120.871 430.645 121 430.477 121.352 429.973 121.805 430.672 123.523 431.059 124.484 432.418 128.031 432.184 128.707 432.055 129.098 431.523 129.355 430.578 129.238 430.102 129.188 429.207 129.445 429.297 130.227 429.297 130.227 429.621 129.812 430.102 129.812 430.141 129.812 430.168 129.836 430.168 129.875 430.219 130.227 430.734 130.445 431.215 130.25 431.68 130.027 432.715 129.863 433.027 129.812 433.078 129.797 433.129 129.82 433.168 129.848 433.297 129.965 433.637 130.215 434.113 130.215 434.723 130.215 436.211 130.215 436.445 130.215 436.664 130.211 436.844 130.07 436.855 129.848 436.855 129.809 436.895 129.781 436.934 129.781 437.18 129.797 437.426 129.914 437.672 130.215 437.688 129.562 437.285 129.395 436.82 129.355 436.77 129.355 436.73 129.332 436.703 129.293 436.574 129.137 436.328 129.07 435.656 129.172 434.902 129.289 433.711 128.926 433.09 127.238 432.469 125.547 431.875 123.898 432.25 123.066 432.441 122.625 433.156 121.484 433.906 120.457 433.973 120.367 434.086 120.297 434.203 120.297 435.277 120.219 436.469 120.117 437.234 120.039 437.297 120.023 437.352 120.102 437.336 120.168 437.156 120.738 436.973 121.285 436.844 121.664 436.508 122.57 437.039 123.414 437.688 124.012 438.422 124.703 441.879 128.031 441.656 128.707 441.527 129.098 440.996 129.445 440.105 129.145 439.199 128.848 438.5 129.445 438.59 130.215 438.59 130.215 438.965 129.578 439.445 129.551 439.484 129.551 439.523 129.578 439.523 129.617 439.574 129.98 440.094 130.367 440.77 130.043 441.234 129.82 442.242 129.793 442.527 129.793 442.566 129.793 442.617 129.809 442.645 129.848 442.762 129.953 443.105 130.227 443.598 130.227 444.207 130.227 445.695 130.227 445.93 130.227 446.148 130.227 446.332 130.121 446.344 129.926 446.344 129.887 446.383 129.859 446.41 129.859 446.668 129.871 446.926 129.965 447.145 130.238 447.16 129.586 446.758 129.418 446.293 129.379 446.254 129.379 446.203 129.355 446.176 129.316 446.047 129.16 445.801 129.121 445.117 129.227 444.363 129.344 443.254 128.664 442.125 127.312 441 125.965 439.406 124.09 439.293 123.168 439.238 122.766 439.793 120.75 440.414 118.945 440.492 118.711 440.66 118.52 440.883 118.391 449.461 113.789 449.762 108.141 450.293 105.254 450.746 102.812 451.289 101.797 451.535 101.445 451.613 101.344 451.719 101.277 451.848 101.277L456.625 100.969C456.754 100.941 456.828 100.809 456.766 100.691 456.48 100.133 455.473 98.797 452.156 98.406 452.082 98.395 452 98.367 451.934 98.316 450.18 97.078 450.039 96.348 447.352 96.332ZM447.352 96.332" fill="#ffffff"/>
</g>
</g>
</g>
<g clip-path="url(#clip_57)">
<g clip-path="url(#clip_58)">
<g clip-path="url(#clip_59)">
<path transform="matrix(.996215,0,0,1,0,0)" stroke-width="3.0128" stroke-linecap="butt" stroke-miterlimit="4" stroke-linejoin="miter" fill="none" stroke="#000000" d="M369.633 46.266H403.147"/>
</g>
</g>
<g clip-path="url(#clip_60)">
<g clip-path="url(#clip_61)">
<path d="M400.121 52.895 413.328 46.266 400.121 39.637ZM400.121 52.895"/>
</g>
</g>
</g>
<g clip-path="url(#clip_62)">
<g clip-path="url(#clip_63)">
<g clip-path="url(#clip_64)">
<g clip-path="url(#clip_65)">
<path transform="matrix(0,1,-.996215,0,0,0)" stroke-width="3.0128" stroke-linecap="butt" stroke-miterlimit="4" stroke-linejoin="miter" fill="none" stroke="#000000" d="M45.98-583.16H75.406"/>
</g>
</g>
</g>
<g clip-path="url(#clip_66)">
<g clip-path="url(#clip_67)">
<path d="M574.352 73.902 580.953 87.156 587.559 73.902ZM574.352 73.902"/>
</g>
</g>
</g>
<g clip-path="url(#clip_68)">
<g clip-path="url(#clip_69)">
<g clip-path="url(#clip_70)">
<path transform="matrix(.996215,0,0,1,0,0)" stroke-width="3.0128" stroke-linecap="butt" stroke-miterlimit="4" stroke-linejoin="miter" fill="none" stroke="#000000" d="M220.781 46.266H227.894"/>
</g>
</g>
<g clip-path="url(#clip_71)">
<g clip-path="url(#clip_72)">
<path d="M225.531 52.895 238.738 46.266 225.531 39.637ZM225.531 52.895"/>
</g>
</g>
</g>
<g clip-path="url(#clip_73)">
<g clip-path="url(#clip_74)">
<g clip-path="url(#clip_75)">
<path transform="matrix(.996215,0,0,1,0,0)" stroke-width="3.0128" stroke-linecap="butt" stroke-miterlimit="4" stroke-linejoin="miter" fill="none" stroke="#000000" d="M220.781 153.469H227.894"/>
</g>
</g>
<g clip-path="url(#clip_76)">
<g clip-path="url(#clip_77)">
<path d="M225.531 160.098 238.738 153.469 225.531 146.844ZM225.531 160.098"/>
</g>
</g>
</g>
<g clip-path="url(#clip_78)">
<g clip-path="url(#clip_79)">
<g clip-path="url(#clip_80)">
<g clip-path="url(#clip_81)">
<path transform="matrix(0,-1,.996215,0,0,0)" stroke-width="3.0128" stroke-linecap="butt" stroke-miterlimit="4" stroke-linejoin="miter" fill="none" stroke="#000000" d="M-94.238 432.563H-71.996"/>
</g>
</g>
</g>
<g clip-path="url(#clip_82)">
<g clip-path="url(#clip_83)">
<path d="M437.527 73.504 430.926 60.25 424.32 73.504ZM437.527 73.504"/>
</g>
</g>
</g>
<g clip-path="url(#clip_84)">
<g clip-path="url(#clip_85)">
<g clip-path="url(#clip_86)">
<g clip-path="url(#clip_87)">
<g clip-path="url(#clip_88)">
<path transform="matrix(.897771,0,0,1,0,0)" stroke-width="3.0128" stroke-linecap="butt" stroke-miterlimit="4" stroke-linejoin="miter" fill="none" stroke="#000000" d="M411.153 175.266H648.72"/>
</g>
</g>
</g>
</g>
</g>
<g clip-path="url(#clip_89)">
<g clip-path="url(#clip_90)">
<g clip-path="url(#clip_91)">
<g clip-path="url(#clip_92)">
<path transform="matrix(0,-1,.996215,0,0,0)" stroke-width="3.0128" stroke-linecap="butt" stroke-miterlimit="4" stroke-linejoin="miter" fill="none" stroke="#000000" d="M-176.809 583.16H-128.23"/>
</g>
</g>
</g>
<g clip-path="url(#clip_93)">
<g clip-path="url(#clip_94)">
<path d="M587.559 129.738 580.953 116.48 574.352 129.738ZM587.559 129.738"/>
</g>
</g>
</g>
<g clip-path="url(#clip_95)">
<g clip-path="url(#clip_96)">
<g clip-path="url(#clip_97)">
<path transform="matrix(.996215,0,0,1,0,0)" stroke-width="3.0128" stroke-linecap="butt" stroke-miterlimit="4" stroke-linejoin="miter" fill="none" stroke="#000000" d="M370.606 157.086H433.179"/>
</g>
</g>
</g>
<g clip-path="url(#clip_98)">
<g clip-path="url(#clip_99)">
<g clip-path="url(#clip_100)">
<g clip-path="url(#clip_101)">
<path transform="matrix(0,-1,.996215,0,0,0)" stroke-width="3.0128" stroke-linecap="butt" stroke-miterlimit="4" stroke-linejoin="miter" fill="none" stroke="#000000" d="M-158.594 432.563H-134.695"/>
</g>
</g>
</g>
</g>
<g clip-path="url(#clip_102)">
<g clip-path="url(#clip_103)">
<g clip-path="url(#clip_104)">
<path transform="matrix(1,0,0,.660397,0,0)" stroke-width="4.562101" stroke-linecap="butt" stroke-miterlimit="4" stroke-linejoin="miter" fill="none" stroke="#000000" d="M447.801 70.057H582.625"/>
</g>
</g>
</g>
<g clip-path="url(#clip_105)">
<g clip-path="url(#clip_106)">
<g clip-path="url(#clip_107)">
<path transform="matrix(.996215,0,0,1,0,0)" stroke-width="3.0128" stroke-linecap="butt" stroke-miterlimit="4" stroke-linejoin="miter" fill="none" stroke="#000000" d="M72.344 153.469H79.457"/>
</g>
</g>
<g clip-path="url(#clip_108)">
<g clip-path="url(#clip_109)">
<path d="M77.656 160.098 90.859 153.469 77.656 146.844ZM77.656 160.098"/>
</g>
</g>
</g>
<g clip-path="url(#clip_110)">
<g clip-path="url(#clip_111)">
<g clip-path="url(#clip_112)">
<path transform="matrix(.996215,0,0,1,0,0)" stroke-width="3.0128" stroke-linecap="butt" stroke-miterlimit="4" stroke-linejoin="miter" fill="none" stroke="#000000" d="M67.662 46.266H74.779"/>
</g>
</g>
<g clip-path="url(#clip_113)">
<g clip-path="url(#clip_114)">
<path d="M72.992 52.895 86.199 46.266 72.992 39.637ZM72.992 52.895"/>
</g>
</g>
</g>
<path transform="matrix(.996215,0,0,-1,0,0)" d="M534.453-99.785C534.28-99.785 533.825-99.688 533.084-99.5 532.343-99.312 531.802-99.215 531.457-99.215 531.116-99.215 530.822-99.25 530.582-99.32 530.339-99.387 530.143-99.473 529.986-99.578 529.834-99.68 529.728-99.773 529.677-99.859 529.626-99.945 529.567-100.043 529.496-100.145L529.445-100.25C529.394-100.301 529.265-100.324 529.057-100.324 528.696-100.324 528.516-100.258 528.516-100.121 528.516-100.035 528.544-99.914 528.595-99.758 528.818-99.086 529.187-98.512 529.704-98.027 530.218-97.547 530.786-97.254 531.406-97.152 531.614-97.117 531.759-97.102 531.845-97.102 532.276-97.102 532.661-97.246 533.006-97.539 533.351-97.832 533.676-98.113 533.986-98.391 534.296-98.664 534.625-98.812 534.966-98.828 535.347-98.828 535.723-98.547 536.103-97.977 536.484-97.41 536.68-97.125 536.695-97.125 536.715-97.109 536.844-97.102 537.084-97.102H537.421C537.523-97.203 537.574-97.273 537.574-97.305 537.574-97.375 537.531-97.496 537.444-97.668 537.358-97.84 537.241-98.02 537.084-98.211 536.931-98.398 536.782-98.59 536.645-98.777 536.507-98.965 536.386-99.129 536.284-99.27L536.103-99.5C535.362-100.379 534.194-101.539 532.594-102.984 530.994-104.43 530.006-105.359 529.626-105.77L529.316-106.082 529.704-106.105C530.081-106.105 530.633-106.203 531.355-106.391 532.076-106.578 532.618-106.676 532.982-106.676 533.633-106.676 534.237-106.512 534.786-106.184 535.339-105.855 535.7-105.426 535.872-104.895 535.939-104.738 536.001-104.645 536.052-104.609 536.103-104.574 536.233-104.559 536.441-104.559 536.766-104.559 536.931-104.645 536.931-104.816 536.931-104.902 536.919-104.98 536.903-105.047 536.609-106.117 536.045-107 535.202-107.707 534.359-108.41 533.515-108.773 532.672-108.789 532.225-108.789 531.829-108.645 531.484-108.352 531.139-108.059 530.806-107.766 530.477-107.473 530.151-107.184 529.822-107.035 529.496-107.035 528.74-107.035 528.061-107.551 527.457-108.586 527.355-108.723 527.206-108.789 527.018-108.789H526.556C526.45-108.688 526.399-108.609 526.399-108.559 526.399-108.301 526.901-107.559 527.897-106.34 528.567-105.566 529.704-104.445 531.304-102.984 532.904-101.523 533.892-100.594 534.272-100.195 534.476-99.922 534.539-99.785 534.453-99.785ZM534.453-99.785"/>
<path transform="matrix(.996215,0,0,-1,0,0)" stroke-width=".258074" stroke-linecap="butt" stroke-miterlimit="4" stroke-linejoin="miter" fill="none" stroke="#000000" d="M534.453-99.785C534.28-99.785 533.825-99.688 533.084-99.5 532.343-99.312 531.802-99.215 531.457-99.215 531.116-99.215 530.822-99.25 530.582-99.32 530.339-99.387 530.143-99.473 529.986-99.578 529.834-99.68 529.728-99.773 529.677-99.859 529.626-99.945 529.567-100.043 529.496-100.145L529.445-100.25C529.394-100.301 529.265-100.324 529.057-100.324 528.696-100.324 528.516-100.258 528.516-100.121 528.516-100.035 528.544-99.914 528.595-99.758 528.818-99.086 529.187-98.512 529.704-98.027 530.218-97.547 530.786-97.254 531.406-97.152 531.614-97.117 531.759-97.102 531.845-97.102 532.276-97.102 532.661-97.246 533.006-97.539 533.351-97.832 533.676-98.113 533.986-98.391 534.296-98.664 534.625-98.812 534.966-98.828 535.347-98.828 535.723-98.547 536.103-97.977 536.484-97.41 536.68-97.125 536.695-97.125 536.715-97.109 536.844-97.102 537.084-97.102H537.421C537.523-97.203 537.574-97.273 537.574-97.305 537.574-97.375 537.531-97.496 537.444-97.668 537.358-97.84 537.241-98.02 537.084-98.211 536.931-98.398 536.782-98.59 536.645-98.777 536.507-98.965 536.386-99.129 536.284-99.27L536.103-99.5C535.362-100.379 534.194-101.539 532.594-102.984 530.994-104.43 530.006-105.359 529.626-105.77L529.316-106.082 529.704-106.105C530.081-106.105 530.633-106.203 531.355-106.391 532.076-106.578 532.618-106.676 532.982-106.676 533.633-106.676 534.237-106.512 534.786-106.184 535.339-105.855 535.7-105.426 535.872-104.895 535.939-104.738 536.001-104.645 536.052-104.609 536.103-104.574 536.233-104.559 536.441-104.559 536.766-104.559 536.931-104.645 536.931-104.816 536.931-104.902 536.919-104.98 536.903-105.047 536.609-106.117 536.045-107 535.202-107.707 534.359-108.41 533.515-108.773 532.672-108.789 532.225-108.789 531.829-108.645 531.484-108.352 531.139-108.059 530.806-107.766 530.477-107.473 530.151-107.184 529.822-107.035 529.496-107.035 528.74-107.035 528.061-107.551 527.457-108.586 527.355-108.723 527.206-108.789 527.018-108.789H526.556C526.45-108.688 526.399-108.609 526.399-108.559 526.399-108.301 526.901-107.559 527.897-106.34 528.567-105.566 529.704-104.445 531.304-102.984 532.904-101.523 533.892-100.594 534.272-100.195 534.476-99.922 534.539-99.785 534.453-99.785ZM534.453-99.785"/>
<path transform="matrix(.996215,0,0,-1,0,0)" d="M538.087-104.328C538.001-104.242 537.962-104.184 537.962-104.145 537.962-104.098 537.978-104 538.017-103.855 538.052-103.707 538.084-103.621 538.107-103.598 538.131-103.539 538.185-103.508 538.272-103.508 538.354-103.508 538.668-103.5 539.201-103.488H540.17L540.515-102.027C540.55-101.895 540.593-101.719 540.644-101.5 540.691-101.281 540.734-101.121 540.769-101.027 540.809-100.93 540.844-100.805 540.879-100.66 540.918-100.516 540.966-100.41 541.024-100.352 541.087-100.289 541.146-100.215 541.209-100.133 541.267-100.047 541.354-99.992 541.464-99.969 541.573-99.941 541.683-99.93 541.793-99.93 542.012-99.941 542.165-100.008 542.248-100.133 542.334-100.254 542.377-100.367 542.377-100.477 542.377-100.562 542.322-100.848 542.212-101.336 542.103-101.824 541.981-102.305 541.848-102.777L541.664-103.453C541.664-103.477 541.969-103.488 542.577-103.488H543.506C543.593-103.574 543.636-103.641 543.636-103.691 543.636-103.957 543.557-104.172 543.397-104.328H541.444L540.789-106.973C540.315-108.922 540.075-109.969 540.075-110.113 540.075-110.625 540.24-110.879 540.57-110.879 540.997-110.879 541.409-110.672 541.813-110.258 542.212-109.844 542.534-109.336 542.777-108.727 542.801-108.652 542.832-108.609 542.867-108.598 542.906-108.586 542.997-108.574 543.142-108.562H543.216C543.397-108.562 543.491-108.609 543.491-108.707 543.491-108.746 543.471-108.816 543.436-108.926 543.373-109.121 543.263-109.352 543.106-109.621 542.95-109.887 542.742-110.176 542.487-110.477 542.232-110.781 541.918-111.039 541.554-111.246 541.189-111.453 540.82-111.555 540.444-111.555 540.075-111.555 539.73-111.465 539.401-111.281 539.072-111.098 538.836-110.781 538.691-110.332 538.668-110.234 538.652-110.07 538.652-109.84V-109.512L539.291-106.957C539.719-105.242 539.938-104.379 539.95-104.363 539.95-104.34 539.64-104.328 539.017-104.328ZM538.087-104.328"/>
<path transform="matrix(.996215,0,0,-1,0,0)" stroke-width=".182486" stroke-linecap="butt" stroke-miterlimit="4" stroke-linejoin="miter" fill="none" stroke="#000000" d="M538.087-104.328C538.001-104.242 537.962-104.184 537.962-104.145 537.962-104.098 537.978-104 538.017-103.855 538.052-103.707 538.084-103.621 538.107-103.598 538.131-103.539 538.185-103.508 538.272-103.508 538.354-103.508 538.668-103.5 539.201-103.488H540.17L540.515-102.027C540.55-101.895 540.593-101.719 540.644-101.5 540.691-101.281 540.734-101.121 540.769-101.027 540.809-100.93 540.844-100.805 540.879-100.66 540.918-100.516 540.966-100.41 541.024-100.352 541.087-100.289 541.146-100.215 541.209-100.133 541.267-100.047 541.354-99.992 541.464-99.969 541.573-99.941 541.683-99.93 541.793-99.93 542.012-99.941 542.165-100.008 542.248-100.133 542.334-100.254 542.377-100.367 542.377-100.477 542.377-100.562 542.322-100.848 542.212-101.336 542.103-101.824 541.981-102.305 541.848-102.777L541.664-103.453C541.664-103.477 541.969-103.488 542.577-103.488H543.506C543.593-103.574 543.636-103.641 543.636-103.691 543.636-103.957 543.557-104.172 543.397-104.328H541.444L540.789-106.973C540.315-108.922 540.075-109.969 540.075-110.113 540.075-110.625 540.24-110.879 540.57-110.879 540.997-110.879 541.409-110.672 541.813-110.258 542.212-109.844 542.534-109.336 542.777-108.727 542.801-108.652 542.832-108.609 542.867-108.598 542.906-108.586 542.997-108.574 543.142-108.562H543.216C543.397-108.562 543.491-108.609 543.491-108.707 543.491-108.746 543.471-108.816 543.436-108.926 543.373-109.121 543.263-109.352 543.106-109.621 542.95-109.887 542.742-110.176 542.487-110.477 542.232-110.781 541.918-111.039 541.554-111.246 541.189-111.453 540.82-111.555 540.444-111.555 540.075-111.555 539.73-111.465 539.401-111.281 539.072-111.098 538.836-110.781 538.691-110.332 538.668-110.234 538.652-110.07 538.652-109.84V-109.512L539.291-106.957C539.719-105.242 539.938-104.379 539.95-104.363 539.95-104.34 539.64-104.328 539.017-104.328ZM538.087-104.328"/>
<path transform="matrix(1,0,0,-.905312,0,0)" d="M628.094-108.159C627.906-108.159 627.402-108.056 626.59-107.849 625.773-107.642 625.176-107.534 624.797-107.534 624.418-107.534 624.094-107.573 623.828-107.65 623.562-107.724 623.344-107.818 623.176-107.935 623.004-108.047 622.891-108.151 622.832-108.246 622.777-108.341 622.711-108.444 622.633-108.561L622.578-108.673C622.52-108.729 622.379-108.759 622.152-108.759 621.754-108.759 621.555-108.681 621.555-108.53 621.555-108.435 621.582-108.302 621.637-108.133 621.887-107.391 622.293-106.757 622.863-106.226 623.43-105.696 624.055-105.372 624.738-105.26 624.965-105.221 625.129-105.204 625.223-105.204 625.695-105.204 626.125-105.363 626.504-105.687 626.883-106.011 627.242-106.321 627.582-106.623 627.926-106.93 628.285-107.089 628.664-107.107 629.082-107.107 629.5-106.796 629.918-106.17 630.332-105.545 630.551-105.23 630.57-105.23 630.59-105.212 630.73-105.204 630.996-105.204H631.367C631.48-105.316 631.539-105.394 631.539-105.432 631.539-105.506 631.488-105.639 631.395-105.829 631.301-106.019 631.168-106.218 630.996-106.425 630.828-106.636 630.664-106.843 630.512-107.05 630.363-107.262 630.23-107.439 630.117-107.594L629.918-107.849C629.102-108.815 627.812-110.097 626.047-111.689 624.285-113.281 623.195-114.304 622.777-114.761L622.434-115.102 622.863-115.132C623.277-115.132 623.887-115.236 624.684-115.443 625.48-115.65 626.074-115.758 626.473-115.758 627.195-115.758 627.859-115.577 628.465-115.214 629.074-114.856 629.469-114.381 629.66-113.794 629.734-113.622 629.801-113.518 629.859-113.48 629.918-113.441 630.059-113.423 630.285-113.423 630.645-113.423 630.828-113.518 630.828-113.708 630.828-113.803 630.816-113.889 630.797-113.963 630.477-115.141 629.852-116.116 628.922-116.893 627.992-117.674 627.062-118.07 626.133-118.088 625.641-118.088 625.203-117.928 624.824-117.604 624.445-117.281 624.074-116.962 623.715-116.638 623.355-116.314 622.996-116.155 622.633-116.155 621.801-116.155 621.051-116.724 620.387-117.859 620.273-118.014 620.113-118.088 619.902-118.088H619.391C619.277-117.976 619.219-117.889 619.219-117.833 619.219-117.548 619.77-116.733 620.871-115.387 621.609-114.532 622.863-113.298 624.625-111.689 626.391-110.075 627.48-109.053 627.898-108.617 628.125-108.315 628.191-108.159 628.094-108.159ZM628.094-108.159"/>
<path transform="matrix(1,0,0,-.905312,0,0)" stroke-width=".284457" stroke-linecap="butt" stroke-miterlimit="4" stroke-linejoin="miter" fill="none" stroke="#000000" d="M628.094-108.159C627.906-108.159 627.402-108.056 626.59-107.849 625.773-107.642 625.176-107.534 624.797-107.534 624.418-107.534 624.094-107.573 623.828-107.65 623.562-107.724 623.344-107.818 623.176-107.935 623.004-108.047 622.891-108.151 622.832-108.246 622.777-108.341 622.711-108.444 622.633-108.561L622.578-108.673C622.52-108.729 622.379-108.759 622.152-108.759 621.754-108.759 621.555-108.681 621.555-108.53 621.555-108.435 621.582-108.302 621.637-108.133 621.887-107.391 622.293-106.757 622.863-106.226 623.43-105.696 624.055-105.372 624.738-105.26 624.965-105.221 625.129-105.204 625.223-105.204 625.695-105.204 626.125-105.363 626.504-105.687 626.883-106.011 627.242-106.321 627.582-106.623 627.926-106.93 628.285-107.089 628.664-107.107 629.082-107.107 629.5-106.796 629.918-106.17 630.332-105.545 630.551-105.23 630.57-105.23 630.59-105.212 630.73-105.204 630.996-105.204H631.367C631.48-105.316 631.539-105.394 631.539-105.432 631.539-105.506 631.488-105.639 631.395-105.829 631.301-106.019 631.168-106.218 630.996-106.425 630.828-106.636 630.664-106.843 630.512-107.05 630.363-107.262 630.23-107.439 630.117-107.594L629.918-107.849C629.102-108.815 627.812-110.097 626.047-111.689 624.285-113.281 623.195-114.304 622.777-114.761L622.434-115.102 622.863-115.132C623.277-115.132 623.887-115.236 624.684-115.443 625.48-115.65 626.074-115.758 626.473-115.758 627.195-115.758 627.859-115.577 628.465-115.214 629.074-114.856 629.469-114.381 629.66-113.794 629.734-113.622 629.801-113.518 629.859-113.48 629.918-113.441 630.059-113.423 630.285-113.423 630.645-113.423 630.828-113.518 630.828-113.708 630.828-113.803 630.816-113.889 630.797-113.963 630.477-115.141 629.852-116.116 628.922-116.893 627.992-117.674 627.062-118.07 626.133-118.088 625.641-118.088 625.203-117.928 624.824-117.604 624.445-117.281 624.074-116.962 623.715-116.638 623.355-116.314 622.996-116.155 622.633-116.155 621.801-116.155 621.051-116.724 620.387-117.859 620.273-118.014 620.113-118.088 619.902-118.088H619.391C619.277-117.976 619.219-117.889 619.219-117.833 619.219-117.548 619.77-116.733 620.871-115.387 621.609-114.532 622.863-113.298 624.625-111.689 626.391-110.075 627.48-109.053 627.898-108.617 628.125-108.315 628.191-108.159 628.094-108.159ZM628.094-108.159"/>
<path transform="matrix(1,0,0,-.905312,0,0)" d="M632.117-114.299C632.023-114.204 631.977-114.14 631.977-114.097 631.977-114.045 631.996-113.937 632.035-113.777 632.078-113.613 632.109-113.523 632.137-113.492 632.164-113.428 632.227-113.393 632.32-113.393 632.414-113.393 632.754-113.389 633.344-113.372H634.41L634.793-111.762C634.832-111.616 634.879-111.421 634.934-111.18 634.988-110.938 635.035-110.765 635.074-110.658 635.113-110.55 635.156-110.416 635.195-110.256 635.234-110.097 635.289-109.98 635.355-109.915 635.422-109.846 635.488-109.764 635.559-109.674 635.625-109.579 635.719-109.519 635.84-109.493 635.961-109.462 636.078-109.449 636.199-109.449 636.441-109.462 636.609-109.54 636.703-109.674 636.797-109.808 636.844-109.933 636.844-110.054 636.844-110.148 636.785-110.463 636.664-110.998 636.543-111.538 636.41-112.064 636.262-112.591L636.059-113.333C636.059-113.359 636.395-113.372 637.066-113.372H638.09C638.184-113.467 638.23-113.54 638.23-113.596 638.23-113.889 638.145-114.122 637.973-114.299H635.82L635.094-117.216C634.57-119.361 634.309-120.513 634.309-120.677 634.309-121.238 634.492-121.518 634.852-121.518 635.324-121.518 635.777-121.294 636.223-120.836 636.664-120.379 637.02-119.818 637.285-119.145 637.312-119.067 637.348-119.02 637.387-119.007 637.426-118.994 637.527-118.977 637.688-118.964H637.77C637.973-118.964 638.07-119.02 638.07-119.128 638.07-119.166 638.051-119.248 638.012-119.369 637.945-119.581 637.824-119.835 637.648-120.133 637.473-120.426 637.246-120.741 636.965-121.078 636.684-121.414 636.34-121.695 635.938-121.924 635.535-122.148 635.129-122.264 634.711-122.264 634.309-122.264 633.93-122.165 633.566-121.962 633.203-121.76 632.941-121.414 632.781-120.918 632.754-120.81 632.742-120.629 632.742-120.375V-120.012L633.445-117.195C633.914-115.305 634.156-114.351 634.168-114.338 634.168-114.312 633.828-114.299 633.145-114.299ZM632.117-114.299"/>
<path transform="matrix(1,0,0,-.905312,0,0)" stroke-width=".201142" stroke-linecap="butt" stroke-miterlimit="4" stroke-linejoin="miter" fill="none" stroke="#000000" d="M632.117-114.299C632.023-114.204 631.977-114.14 631.977-114.097 631.977-114.045 631.996-113.937 632.035-113.777 632.078-113.613 632.109-113.523 632.137-113.492 632.164-113.428 632.227-113.393 632.32-113.393 632.414-113.393 632.754-113.389 633.344-113.372H634.41L634.793-111.762C634.832-111.616 634.879-111.421 634.934-111.18 634.988-110.938 635.035-110.765 635.074-110.658 635.113-110.55 635.156-110.416 635.195-110.256 635.234-110.097 635.289-109.98 635.355-109.915 635.422-109.846 635.488-109.764 635.559-109.674 635.625-109.579 635.719-109.519 635.84-109.493 635.961-109.462 636.078-109.449 636.199-109.449 636.441-109.462 636.609-109.54 636.703-109.674 636.797-109.808 636.844-109.933 636.844-110.054 636.844-110.148 636.785-110.463 636.664-110.998 636.543-111.538 636.41-112.064 636.262-112.591L636.059-113.333C636.059-113.359 636.395-113.372 637.066-113.372H638.09C638.184-113.467 638.23-113.54 638.23-113.596 638.23-113.889 638.145-114.122 637.973-114.299H635.82L635.094-117.216C634.57-119.361 634.309-120.513 634.309-120.677 634.309-121.238 634.492-121.518 634.852-121.518 635.324-121.518 635.777-121.294 636.223-120.836 636.664-120.379 637.02-119.818 637.285-119.145 637.312-119.067 637.348-119.02 637.387-119.007 637.426-118.994 637.527-118.977 637.688-118.964H637.77C637.973-118.964 638.07-119.02 638.07-119.128 638.07-119.166 638.051-119.248 638.012-119.369 637.945-119.581 637.824-119.835 637.648-120.133 637.473-120.426 637.246-120.741 636.965-121.078 636.684-121.414 636.34-121.695 635.938-121.924 635.535-122.148 635.129-122.264 634.711-122.264 634.309-122.264 633.93-122.165 633.566-121.962 633.203-121.76 632.941-121.414 632.781-120.918 632.754-120.81 632.742-120.629 632.742-120.375V-120.012L633.445-117.195C633.914-115.305 634.156-114.351 634.168-114.338 634.168-114.312 633.828-114.299 633.145-114.299ZM632.117-114.299"/>
<path transform="matrix(1,0,0,-.905312,0,0)" d="M640.645-117.277C640.645-117.277 640.645-117.19 640.645-117.013 640.645-116.841 640.738-116.707 640.926-116.612H652.613C652.816-116.72 652.914-116.854 652.914-117.013 652.914-117.173 652.816-117.311 652.613-117.415H640.926C640.738-117.324 640.645-117.19 640.645-117.013ZM640.645-117.277"/>
<path transform="matrix(1,0,0,-.905312,0,0)" stroke-width=".201142" stroke-linecap="butt" stroke-miterlimit="4" stroke-linejoin="miter" fill="none" stroke="#000000" d="M640.645-117.277C640.645-117.277 640.645-117.19 640.645-117.013 640.645-116.841 640.738-116.707 640.926-116.612H652.613C652.816-116.72 652.914-116.854 652.914-117.013 652.914-117.173 652.816-117.311 652.613-117.415H640.926C640.738-117.324 640.645-117.19 640.645-117.013ZM640.645-117.277"/>
<path transform="matrix(1,0,0,-.905312,0,0)" d="M658.988-110.416 658.73-110.515C658.539-110.584 658.273-110.653 657.926-110.718 657.574-110.787 657.188-110.83 656.758-110.86H656.375V-109.933H656.758C657.387-109.907 657.973-109.808 658.508-109.631 659.043-109.458 659.418-109.298 659.633-109.147 659.848-109.001 660.035-108.854 660.195-108.707 660.223-108.668 660.305-108.647 660.438-108.647 660.559-108.647 660.672-108.686 660.781-108.768V-114.783L660.801-120.815C660.895-120.91 660.977-120.97 661.043-120.996 661.109-121.022 661.27-121.052 661.523-121.078 661.777-121.104 662.195-121.117 662.773-121.117H663.293V-122.044H663.074C662.793-122.001 661.727-121.984 659.875-121.984 658.051-121.984 657-122.001 656.719-122.044H656.477V-121.117H657C657.293-121.117 657.547-121.117 657.762-121.117 657.977-121.117 658.145-121.112 658.266-121.095 658.387-121.082 658.492-121.065 658.586-121.035 658.68-121.009 658.734-120.996 658.75-120.996 658.762-120.996 658.801-120.961 658.871-120.897 658.938-120.828 658.977-120.802 658.988-120.815ZM658.988-110.416"/>
<path transform="matrix(1,0,0,-.905312,0,0)" stroke-width=".201142" stroke-linecap="butt" stroke-miterlimit="4" stroke-linejoin="miter" fill="none" stroke="#000000" d="M658.988-110.416 658.73-110.515C658.539-110.584 658.273-110.653 657.926-110.718 657.574-110.787 657.188-110.83 656.758-110.86H656.375V-109.933H656.758C657.387-109.907 657.973-109.808 658.508-109.631 659.043-109.458 659.418-109.298 659.633-109.147 659.848-109.001 660.035-108.854 660.195-108.707 660.223-108.668 660.305-108.647 660.438-108.647 660.559-108.647 660.672-108.686 660.781-108.768V-114.783L660.801-120.815C660.895-120.91 660.977-120.97 661.043-120.996 661.109-121.022 661.27-121.052 661.523-121.078 661.777-121.104 662.195-121.117 662.773-121.117H663.293V-122.044H663.074C662.793-122.001 661.727-121.984 659.875-121.984 658.051-121.984 657-122.001 656.719-122.044H656.477V-121.117H657C657.293-121.117 657.547-121.117 657.762-121.117 657.977-121.117 658.145-121.112 658.266-121.095 658.387-121.082 658.492-121.065 658.586-121.035 658.68-121.009 658.734-120.996 658.75-120.996 658.762-120.996 658.801-120.961 658.871-120.897 658.938-120.828 658.977-120.802 658.988-120.815ZM658.988-110.416"/>
<path d="M550.203 132.012 550.141 75.281 599.117 103.594ZM550.203 132.012" fill="#aacfe9"/>
<path d="M613.793 132.012 613.855 75.281 564.879 103.594ZM613.793 132.012" fill="#aacfe9"/>
<path d="M464.781 137.266C464.531 137.219 463.617 137.195 462.035 137.195 460.562 137.195 459.766 137.219 459.641 137.266H459.453V135.797H460.535C461.258 135.797 461.617 135.781 461.617 135.75 465.004 125.977 466.762 121.035 466.887 120.926 466.969 120.781 467.227 120.711 467.656 120.711 468.059 120.711 468.312 120.781 468.426 120.926 468.48 120.973 468.945 122.227 469.82 124.695 470.695 127.16 471.562 129.629 472.422 132.094L473.691 135.75C473.691 135.781 474.055 135.797 474.773 135.797H475.855V137.266H475.629C475.336 137.219 474.234 137.195 472.316 137.195 470.25 137.195 469.051 137.219 468.719 137.266H468.445V135.797H469.383C469.992 135.797 470.301 135.789 470.301 135.773L469.383 133.117H464.074L463.617 134.422C463.312 135.289 463.152 135.734 463.137 135.75 463.137 135.781 463.441 135.797 464.055 135.797H464.992V137.266ZM466.738 131.645 468.863 131.621 467.781 128.609C467.086 126.617 466.727 125.621 466.699 125.621 465.297 129.605 464.594 131.613 464.594 131.645ZM466.738 131.645"/>
<path d="M480.355 141.008C479.621 141.008 479.027 140.734 478.574 140.188 478.125 139.641 477.898 138.98 477.898 138.207 477.898 137.48 478.047 136.793 478.34 136.145 478.633 135.496 479.035 134.934 479.547 134.453 480.293 133.77 481.055 133.43 481.828 133.43 482.141 133.43 482.34 133.434 482.418 133.445 482.543 133.48 482.672 133.52 482.801 133.562 482.926 133.609 483.098 133.695 483.312 133.832 483.531 133.965 483.707 134.133 483.844 134.336 483.98 134.535 484.109 134.809 484.227 135.156 484.344 135.504 484.402 135.895 484.402 136.328 484.402 137.527 483.98 138.605 483.137 139.566 482.293 140.527 481.367 141.008 480.355 141.008ZM479.18 138.812C479.18 139.371 479.305 139.773 479.562 140.02 479.816 140.266 480.105 140.387 480.43 140.387 480.863 140.387 481.27 140.211 481.652 139.852 482.035 139.492 482.34 139.023 482.562 138.441 482.652 138.207 482.766 137.793 482.902 137.203 483.039 136.609 483.109 136.094 483.109 135.66 483.109 135.168 483.02 134.793 482.844 134.535 482.609 134.199 482.293 134.031 481.902 134.031 481.285 134.031 480.738 134.355 480.27 135.004 479.906 135.496 479.637 136.152 479.457 136.969 479.281 137.785 479.188 138.398 479.18 138.812ZM479.18 138.812"/>
<path d="M379.043 40.262C378.773 40.215 377.789 40.191 376.086 40.191 374.504 40.191 373.645 40.215 373.512 40.262H373.309V38.797H374.473C375.25 38.797 375.637 38.781 375.637 38.75 379.281 29.031 381.172 24.113 381.305 24.004 381.395 23.863 381.672 23.793 382.137 23.793 382.566 23.793 382.844 23.863 382.965 24.004 383.023 24.051 383.523 25.301 384.465 27.754 385.406 30.211 386.34 32.664 387.266 35.117L388.633 38.75C388.633 38.781 389.02 38.797 389.797 38.797H390.961V40.262H390.715C390.402 40.215 389.215 40.191 387.152 40.191 384.926 40.191 383.637 40.215 383.277 40.262H382.984V38.797H383.996C384.652 38.797 384.98 38.789 384.98 38.773L383.996 36.133H378.281L377.789 37.43C377.461 38.293 377.289 38.734 377.273 38.75 377.273 38.781 377.602 38.797 378.258 38.797H379.266V40.262ZM381.148 34.668 383.434 34.645 382.27 31.648C381.523 29.668 381.133 28.676 381.105 28.676 379.598 32.641 378.84 34.637 378.84 34.668ZM381.148 34.668"/>
<path d="M393.871 29.797C393.809 29.797 393.664 29.766 393.441 29.699 393.223 29.633 393.105 29.566 393.094 29.5 393.094 29.422 393.383 28.129 393.965 25.629 394.547 23.125 394.867 21.82 394.93 21.707 395.09 21.352 395.363 21.176 395.754 21.176 395.965 21.176 396.188 21.258 396.422 21.426 396.652 21.59 396.77 21.836 396.77 22.16 396.77 22.215 396.758 22.297 396.738 22.41 396.727 22.488 396.266 23.727 395.359 26.129 394.449 28.531 393.98 29.742 393.949 29.766 393.918 29.789 393.891 29.797 393.871 29.797ZM393.871 29.797"/>
<path d="M590.941 175.637C590.676 175.59 589.699 175.566 588.012 175.566 586.441 175.566 585.59 175.59 585.457 175.637H585.258V174.195H586.414C587.184 174.195 587.566 174.18 587.566 174.148 591.18 164.574 593.051 159.73 593.188 159.625 593.273 159.484 593.547 159.414 594.008 159.414 594.438 159.414 594.711 159.484 594.828 159.625 594.887 159.668 595.383 160.902 596.316 163.32 597.25 165.734 598.176 168.152 599.094 170.57L600.449 174.148C600.449 174.18 600.832 174.195 601.602 174.195H602.758V175.637H602.512C602.203 175.59 601.023 175.566 598.98 175.566 596.777 175.566 595.496 175.59 595.141 175.637H594.852V174.195H595.852C596.504 174.195 596.828 174.188 596.828 174.172L595.852 171.57H590.188L589.699 172.848C589.375 173.699 589.203 174.133 589.188 174.148 589.188 174.18 589.516 174.195 590.164 174.195H591.164V175.637ZM593.031 170.129 595.297 170.105 594.141 167.152C593.402 165.203 593.016 164.227 592.984 164.227 591.492 168.129 590.742 170.098 590.742 170.129ZM593.031 170.129"/>
</g>
</svg>
